# Blender v2.90.1 OBJ Logic.File: ''
# www.blender.org
mtllib Base.mtl
o Cube
v 69.999977 20.000000 -46.666649
v 46.666649 20.000000 -69.999977
v 68.857964 20.000000 -53.877041
v 65.543709 20.000000 -60.381634
v 60.381634 20.000000 -65.543709
v 53.877041 20.000000 -68.857964
v 46.666649 -20.000000 -69.999977
v 69.999977 -20.000000 -46.666649
v 53.877041 -20.000000 -68.857964
v 60.381634 -20.000000 -65.543709
v 65.543709 -20.000000 -60.381634
v 68.857964 -20.000000 -53.877041
v 46.666649 20.000000 69.999977
v 69.999977 20.000000 46.666649
v 53.877041 20.000000 68.857964
v 60.381634 20.000000 65.543709
v 65.543709 20.000000 60.381634
v 68.857964 20.000000 53.877041
v 69.999977 -20.000000 46.666649
v 46.666649 -20.000000 69.999977
v 68.857964 -20.000000 53.877041
v 65.543709 -20.000000 60.381634
v 60.381634 -20.000000 65.543709
v 53.877041 -20.000000 68.857964
v -46.666649 20.000000 -69.999977
v -69.999977 20.000000 -46.666649
v -53.877041 20.000000 -68.857964
v -60.381634 20.000000 -65.543709
v -65.543709 20.000000 -60.381634
v -68.857964 20.000000 -53.877041
v -69.999977 -20.000000 -46.666649
v -46.666649 -20.000000 -69.999977
v -68.857964 -20.000000 -53.877041
v -65.543709 -20.000000 -60.381634
v -60.381634 -20.000000 -65.543709
v -53.877041 -20.000000 -68.857964
v -69.999977 20.000000 46.666649
v -46.666649 20.000000 69.999977
v -68.857964 20.000000 53.877041
v -65.543709 20.000000 60.381634
v -60.381634 20.000000 65.543709
v -53.877041 20.000000 68.857964
v -46.666649 -20.000000 69.999977
v -69.999977 -20.000000 46.666649
v -53.877041 -20.000000 68.857964
v -60.381634 -20.000000 65.543709
v -65.543709 -20.000000 60.381634
v -68.857964 -20.000000 53.877041
v 75.000000 -10.000000 -49.999996
v 73.776413 -10.000000 -57.725422
v 70.225426 -10.000000 -64.694633
v 64.694633 -10.000000 -70.225426
v 57.725422 -10.000000 -73.776413
v 49.999996 -10.000000 -75.000000
v -40.624996 -10.000000 75.000000
v -57.725422 -10.000000 73.776413
v -64.694633 -10.000000 70.225426
v -70.225426 -10.000000 64.694633
v -73.776413 -10.000000 57.725422
v -75.000000 -10.000000 49.999996
v 40.624996 -10.000000 75.000000
v 57.725422 -10.000000 73.776413
v 64.694633 -10.000000 70.225426
v 70.225426 -10.000000 64.694633
v 73.776413 -10.000000 57.725422
v 75.000000 -10.000000 49.999996
v -49.999996 -10.000000 -75.000000
v -57.725422 -10.000000 -73.776413
v -64.694633 -10.000000 -70.225426
v -70.225426 -10.000000 -64.694633
v -73.776413 -10.000000 -57.725422
v -75.000000 -10.000000 -49.999996
v 73.776413 15.000000 -57.725422
v 70.225426 15.000000 -64.694633
v 64.694633 15.000000 -70.225426
v 57.725422 15.000000 -73.776413
v 49.999996 15.000000 -75.000000
v -40.624996 8.617143 75.000000
v 57.725422 15.000000 73.776413
v 64.694633 15.000000 70.225426
v 70.225426 15.000000 64.694633
v 73.776413 15.000000 57.725422
v 75.000000 15.000000 49.999996
v -57.725422 15.000000 -73.776413
v -64.694633 15.000000 -70.225426
v -70.225426 15.000000 -64.694633
v -73.776413 15.000000 -57.725422
v -75.000000 15.000000 -49.999996
v 75.000000 15.000000 -49.999996
v -57.725422 15.000000 73.776413
v -64.694633 15.000000 70.225426
v -70.225426 15.000000 64.694633
v -73.776413 15.000000 57.725422
v -75.000000 15.000000 49.999996
v 40.624996 8.617143 75.000000
v -49.999996 15.000000 -75.000000
v 75.000000 -15.000000 -49.999996
v -57.725422 -15.000000 73.776413
v -64.694633 -15.000000 70.225426
v -70.225426 -15.000000 64.694633
v -73.776413 -15.000000 57.725422
v -75.000000 -15.000000 49.999996
v -49.999996 -15.000000 -75.000000
v 73.776413 -15.000000 -57.725422
v 70.225426 -15.000000 -64.694633
v 64.694633 -15.000000 -70.225426
v 57.725422 -15.000000 -73.776413
v 49.999996 -15.000000 -75.000000
v 57.725422 -15.000000 73.776413
v 64.694633 -15.000000 70.225426
v 70.225426 -15.000000 64.694633
v 73.776413 -15.000000 57.725422
v 75.000000 -15.000000 49.999996
v -57.725422 -15.000000 -73.776413
v -64.694633 -15.000000 -70.225426
v -70.225426 -15.000000 -64.694633
v -73.776413 -15.000000 -57.725422
v -75.000000 -15.000000 -49.999996
v -49.999996 -15.000000 75.000000
v -49.999996 -10.000000 75.000000
v 49.999996 15.000000 75.000000
v 49.999996 -10.000000 75.000000
v -49.999996 15.000000 75.000000
v 49.999996 -15.000000 75.000000
v 0.000000 20.000000 -45.000000
v -8.779064 20.000000 -44.135338
v -17.220755 20.000000 -41.574581
v -25.000662 20.000000 -37.416130
v -31.819805 20.000000 -31.819805
v -37.416134 20.000000 -25.000658
v -41.574581 20.000000 -17.220755
v -44.135338 20.000000 -8.779066
v -45.000000 20.000000 -0.000003
v -44.135338 20.000000 8.779059
v -41.574585 20.000000 17.220747
v -37.416134 20.000000 25.000658
v -31.819805 20.000000 31.819805
v -25.000658 20.000000 37.416134
v -17.220747 20.000000 41.574585
v -8.779054 20.000000 44.135338
v 0.000015 20.000000 45.000000
v 8.779082 20.000000 44.135334
v 17.220774 20.000000 41.574570
v 25.000683 20.000000 37.416122
v 31.819828 20.000000 31.819788
v 37.416149 20.000000 25.000633
v 41.574593 20.000000 17.220720
v 44.135345 20.000000 8.779026
v 45.000000 20.000000 -0.000043
v 44.135330 20.000000 -8.779111
v 41.574558 20.000000 -17.220800
v 37.416103 20.000000 -25.000708
v 31.819765 20.000000 -31.819845
v 25.000610 20.000000 -37.416168
v 17.220694 20.000000 -41.574608
v 8.778997 20.000000 -44.135353
vt 0.562500 0.041667
vt 0.625000 0.041667
vt 0.625000 0.208333
vt 0.562500 0.208333
vt 0.562500 0.791667
vt 0.625000 0.791667
vt 0.625000 0.958333
vt 0.562500 0.958333
vt 0.562500 0.541667
vt 0.625000 0.541667
vt 0.625000 0.708333
vt 0.562500 0.708333
vt 0.625000 0.971209
vt 0.562500 0.971209
vt 0.625000 0.982824
vt 0.562500 0.982824
vt 0.562500 0.000000
vt 0.625000 0.000000
vt 0.625000 0.017176
vt 0.562500 0.017176
vt 0.625000 0.028791
vt 0.562500 0.028791
vt 0.562500 0.291667
vt 0.625000 0.291667
vt 0.625000 0.458333
vt 0.562500 0.458333
vt 0.603827 0.323736
vt 0.500000 0.323736
vt 0.500000 0.208333
vt 0.602840 0.327608
vt 0.500000 0.327608
vt 0.601304 0.347436
vt 0.500000 0.347436
vt 0.599368 0.353207
vt 0.500000 0.353207
vt 0.500000 0.291667
vt 0.562840 0.721209
vt 0.500000 0.721209
vt 0.500000 0.708333
vt 0.563826 0.732824
vt 0.500000 0.732824
vt 0.565363 0.758798
vt 0.500000 0.758798
vt 0.567299 0.768514
vt 0.500000 0.768514
vt 0.500000 0.791667
vt 0.567299 0.481486
vt 0.500000 0.481486
vt 0.500000 0.458333
vt 0.565363 0.491202
vt 0.500000 0.491202
vt 0.563826 0.517176
vt 0.500000 0.517176
vt 0.562840 0.528791
vt 0.500000 0.528791
vt 0.500000 0.541667
vt 0.625680 0.528791
vt 0.627653 0.517176
vt 0.630725 0.491202
vt 0.634597 0.481486
vt 0.634597 0.768514
vt 0.630725 0.758798
vt 0.627653 0.732824
vt 0.625680 0.721209
vt 0.698736 0.353207
vt 0.702608 0.347436
vt 0.705681 0.327608
vt 0.707654 0.323736
vt 0.500000 0.028791
vt 0.500000 0.041667
vt 0.500000 0.017176
vt 0.500000 0.000000
vt 0.500000 0.971209
vt 0.500000 0.982824
vt 0.500000 0.958333
vt 0.556250 0.807292
vt 0.500000 0.807292
vt 0.500000 0.942708
vt 0.556250 0.942708
vt 0.000000 0.000000
vt 0.000000 0.000000
vt 0.000000 0.000000
vt 0.000000 0.000000
vt 0.000000 0.000000
vt 0.000000 0.000000
vt 0.000000 0.000000
vt 0.000000 0.000000
vt 0.000000 0.000000
vt 0.000000 0.000000
vt 0.000000 0.000000
vt 0.000000 0.000000
vt 0.000000 0.000000
vt 0.000000 0.000000
vt 0.000000 0.000000
vt 0.000000 0.000000
vt 0.000000 0.000000
vt 0.000000 0.000000
vt 0.000000 0.000000
vt 0.000000 0.000000
vt 0.000000 0.000000
vt 0.000000 0.000000
vt 0.000000 0.000000
vt 0.000000 0.000000
vt 0.000000 0.000000
vt 0.000000 0.000000
vt 0.000000 0.000000
vt 0.000000 0.000000
vt 0.000000 0.000000
vt 0.000000 0.000000
vt 0.000000 0.000000
vt 0.000000 0.000000
vt 0.125000 0.541667
vt 0.292346 0.323736
vt 0.294319 0.327608
vt 0.297392 0.347436
vt 0.301264 0.353207
vt 0.166667 0.500000
vt 0.333333 0.500000
vt 0.365403 0.481486
vt 0.369275 0.491202
vt 0.372347 0.517176
vt 0.374320 0.528791
vt 0.375000 0.541667
vt 0.375000 0.708333
vt 0.374320 0.721209
vt 0.372347 0.732824
vt 0.369275 0.758798
vt 0.365403 0.768514
vt 0.333333 0.750000
vt 0.166667 0.750000
vt 0.153791 0.747961
vt 0.142176 0.742042
vt 0.132958 0.732824
vt 0.127039 0.721209
vt 0.125000 0.708333
vt 0.437500 0.541667
vt 0.437160 0.528791
vt 0.436174 0.517176
vt 0.434637 0.491202
vt 0.432702 0.481486
vt 0.375000 0.458333
vt 0.437500 0.458333
vt 0.437500 0.791667
vt 0.375000 0.791667
vt 0.432702 0.768514
vt 0.434637 0.758798
vt 0.436174 0.732824
vt 0.437160 0.721209
vt 0.437500 0.708333
vt 0.437500 0.291667
vt 0.375000 0.291667
vt 0.400632 0.353207
vt 0.398696 0.347436
vt 0.397160 0.327608
vt 0.396173 0.323736
vt 0.375000 0.208333
vt 0.437500 0.208333
vt 0.437500 0.028791
vt 0.437500 0.041667
vt 0.437500 0.017176
vt 0.437500 0.000000
vt 0.437500 0.971209
vt 0.437500 0.982824
vt 0.437500 0.958333
vt 0.375000 0.041667
vt 0.375000 0.958333
vt 0.375000 0.971209
vt 0.375000 0.982824
vt 0.375000 0.000000
vt 0.375000 0.017176
vt 0.375000 0.028791
vn -0.7071 0.7071 0.0000
vn 0.0000 0.7071 0.7071
vn 0.7071 0.7071 0.0000
vn -0.1057 0.7375 0.6670
vn -0.2870 0.7749 0.5632
vn -0.4370 0.7862 0.4370
vn -0.5632 0.7749 0.2870
vn -0.6670 0.7375 0.1057
vn 0.0000 0.7071 -0.7071
vn -0.9877 0.0000 -0.1564
vn -0.8910 0.0000 -0.4540
vn -0.7071 0.0000 -0.7071
vn -0.4540 0.0000 -0.8910
vn -0.1564 0.0000 -0.9877
vn 0.9877 0.0000 0.1564
vn 0.8910 0.0000 0.4540
vn 0.7071 0.0000 0.7071
vn 0.4540 0.0000 0.8910
vn 0.1564 0.0000 0.9877
vn 0.1564 0.0000 -0.9877
vn 0.4540 0.0000 -0.8910
vn 0.7071 0.0000 -0.7071
vn 0.8910 0.0000 -0.4540
vn 0.9877 0.0000 -0.1564
vn 0.6670 0.7375 -0.1057
vn 0.5632 0.7749 -0.2870
vn 0.4370 0.7862 -0.4370
vn 0.2870 0.7749 -0.5632
vn 0.1057 0.7375 -0.6670
vn 0.1057 0.7375 0.6670
vn 0.2870 0.7749 0.5632
vn 0.4370 0.7862 0.4370
vn 0.5632 0.7749 0.2870
vn 0.6670 0.7375 0.1057
vn -0.1057 0.7375 -0.6670
vn -0.2870 0.7749 -0.5632
vn -0.4370 0.7862 -0.4370
vn -0.5632 0.7749 -0.2870
vn -0.6670 0.7375 -0.1057
vn 0.0000 0.0000 -1.0000
vn -0.9877 0.0000 0.1564
vn -0.8910 0.0000 0.4540
vn -0.7071 0.0000 0.7071
vn -0.4540 0.0000 0.8910
vn -0.1564 0.0000 0.9877
vn 1.0000 0.0000 0.0000
vn -1.0000 0.0000 0.0000
vn 0.0000 0.0000 1.0000
vn 0.0000 1.0000 -0.0000
vn 0.0000 -1.0000 -0.0000
vn 0.6670 -0.7375 -0.1057
vn 0.5632 -0.7749 -0.2870
vn 0.4370 -0.7862 -0.4370
vn 0.2870 -0.7749 -0.5632
vn 0.1057 -0.7375 -0.6670
vn 0.1057 -0.7375 0.6670
vn 0.2870 -0.7749 0.5632
vn 0.4370 -0.7862 0.4370
vn 0.5632 -0.7749 0.2870
vn 0.6670 -0.7375 0.1057
vn -0.1057 -0.7375 -0.6670
vn -0.2870 -0.7749 -0.5632
vn -0.4370 -0.7862 -0.4370
vn -0.5632 -0.7749 -0.2870
vn -0.6670 -0.7375 -0.1057
vn -0.7071 -0.7071 0.0000
vn 0.0000 -0.7071 0.7071
vn 0.7071 -0.7071 0.0000
vn -0.1057 -0.7375 0.6670
vn -0.2870 -0.7749 0.5632
vn -0.4370 -0.7862 0.4370
vn -0.5632 -0.7749 0.2870
vn -0.6670 -0.7375 0.1057
vn 0.0000 -0.7071 -0.7071
usemtl Material
s off
f 94/1/1 37/2/1 26/3/1 88/4/1
f 121/5/2 13/6/2 38/7/2 123/8/2
f 89/9/3 1/10/3 14/11/3 83/12/3
f 123/8/4 38/7/4 42/13/4 90/14/4
f 90/14/5 42/13/5 41/15/5 91/16/5
f 91/17/6 41/18/6 40/19/6 92/20/6
f 92/20/7 40/19/7 39/21/7 93/22/7
f 93/22/8 39/21/8 37/2/8 94/1/8
f 96/23/9 25/24/9 2/25/9 77/26/9
f 87/27/10 71/28/10 72/29/10 88/4/10
f 86/30/11 70/31/11 71/28/11 87/27/11
f 85/32/12 69/33/12 70/31/12 86/30/12
f 84/34/13 68/35/13 69/33/13 85/32/13
f 96/23/14 67/36/14 68/35/14 84/34/14
f 82/37/15 65/38/15 66/39/15 83/12/15
f 81/40/16 64/41/16 65/38/16 82/37/16
f 80/42/17 63/43/17 64/41/17 81/40/17
f 79/44/18 62/45/18 63/43/18 80/42/18
f 121/5/19 122/46/19 62/45/19 79/44/19
f 76/47/20 53/48/20 54/49/20 77/26/20
f 75/50/21 52/51/21 53/48/21 76/47/21
f 74/52/22 51/53/22 52/51/22 75/50/22
f 73/54/23 50/55/23 51/53/23 74/52/23
f 89/9/24 49/56/24 50/55/24 73/54/24
f 1/10/25 89/9/25 73/54/25 3/57/25
f 3/57/26 73/54/26 74/52/26 4/58/26
f 4/58/27 74/52/27 75/50/27 5/59/27
f 5/59/28 75/50/28 76/47/28 6/60/28
f 6/60/29 76/47/29 77/26/29 2/25/29
f 13/6/30 121/5/30 79/44/30 15/61/30
f 15/61/31 79/44/31 80/42/31 16/62/31
f 16/62/32 80/42/32 81/40/32 17/63/32
f 17/63/33 81/40/33 82/37/33 18/64/33
f 18/64/34 82/37/34 83/12/34 14/11/34
f 25/24/35 96/23/35 84/34/35 27/65/35
f 27/65/36 84/34/36 85/32/36 28/66/36
f 28/66/37 85/32/37 86/30/37 29/67/37
f 29/67/38 86/30/38 87/27/38 30/68/38
f 30/68/39 87/27/39 88/4/39 26/3/39
f 67/36/40 96/23/40 77/26/40 54/49/40
f 59/69/41 93/22/41 94/1/41 60/70/41
f 58/71/42 92/20/42 93/22/42 59/69/42
f 57/72/43 91/17/43 92/20/43 58/71/43
f 56/73/44 90/14/44 91/16/44 57/74/44
f 120/75/45 123/8/45 90/14/45 56/73/45
f 49/56/46 89/9/46 83/12/46 66/39/46
f 60/70/47 94/1/47 88/4/47 72/29/47
f 95/76/48 61/77/48 122/46/48 121/5/48
f 55/78/48 78/79/48 123/8/48 120/75/48
f 78/79/48 95/76/48 121/5/48 123/8/48
f 129/80/49 28/66/49 29/67/49
f 153/81/49 4/58/49 5/59/49
f 17/63/49 145/82/49 16/62/49
f 137/83/49 40/19/49 41/18/49
f 29/67/49 30/68/49 129/80/49
f 129/80/49 30/68/49 130/84/49
f 30/68/49 26/3/49 130/84/49
f 130/84/49 26/3/49 131/85/49
f 27/65/49 28/66/49 129/80/49
f 129/80/49 128/86/49 27/65/49
f 27/65/49 128/86/49 25/24/49
f 128/86/49 127/87/49 25/24/49
f 5/59/49 6/60/49 153/81/49
f 153/81/49 6/60/49 154/88/49
f 6/60/49 2/25/49 154/88/49
f 154/88/49 2/25/49 155/89/49
f 3/57/49 4/58/49 153/81/49
f 153/81/49 152/90/49 3/57/49
f 3/57/49 152/90/49 1/10/49
f 152/90/49 151/91/49 1/10/49
f 2/25/49 25/24/49 127/87/49 126/92/49 125/93/49 156/94/49 155/89/49
f 17/63/49 18/64/49 145/82/49
f 145/82/49 18/64/49 146/95/49
f 18/64/49 14/11/49 146/95/49
f 146/95/49 14/11/49 147/96/49
f 16/62/49 145/82/49 15/61/49
f 145/82/49 144/97/49 15/61/49
f 15/61/49 144/97/49 13/6/49
f 144/97/49 143/98/49 13/6/49
f 41/18/49 42/13/49 137/83/49
f 39/21/49 40/19/49 137/83/49
f 137/83/49 136/99/49 39/21/49
f 137/83/49 42/13/49 138/100/49
f 42/13/49 38/7/49 138/100/49
f 39/21/49 136/99/49 37/2/49
f 136/99/49 135/101/49 37/2/49
f 138/100/49 38/7/49 139/102/49
f 26/3/49 37/2/49 135/101/49 134/103/49 133/104/49 132/105/49 131/85/49
f 38/7/49 13/6/49 143/98/49 142/106/49 141/107/49 140/108/49 139/102/49
f 14/11/49 1/10/49 151/91/49 150/109/49 149/110/49 148/111/49 147/96/49
usemtl Material.001
f 31/112/50 33/113/50 34/114/50 35/115/50 36/116/50 32/117/50 7/118/50 9/119/50 10/120/50 11/121/50 12/122/50 8/123/50 19/124/50 21/125/50 22/126/50 23/127/50 24/128/50 20/129/50 43/130/50 45/131/50 46/132/50 47/133/50 48/134/50 44/135/50
f 97/136/51 8/123/51 12/122/51 104/137/51
f 104/137/52 12/122/52 11/121/52 105/138/52
f 105/138/53 11/121/53 10/120/53 106/139/53
f 106/139/54 10/120/54 9/119/54 107/140/54
f 107/140/55 9/119/55 7/141/55 108/142/55
f 124/143/56 20/144/56 24/128/56 109/145/56
f 109/145/57 24/128/57 23/127/57 110/146/57
f 110/146/58 23/127/58 22/126/58 111/147/58
f 111/147/59 22/126/59 21/125/59 112/148/59
f 112/148/60 21/125/60 19/124/60 113/149/60
f 103/150/61 32/151/61 36/116/61 114/152/61
f 114/152/62 36/116/62 35/115/62 115/153/62
f 115/153/63 35/115/63 34/114/63 116/154/63
f 116/154/64 34/114/64 33/113/64 117/155/64
f 117/155/65 33/113/65 31/156/65 118/157/65
f 103/150/40 67/36/40 54/49/40 108/142/40
f 101/158/41 59/69/41 60/70/41 102/159/41
f 100/160/42 58/71/42 59/69/42 101/158/42
f 99/161/43 57/72/43 58/71/43 100/160/43
f 98/162/44 56/73/44 57/74/44 99/163/44
f 119/164/45 120/75/45 56/73/45 98/162/45
f 97/136/46 49/56/46 66/39/46 113/149/46
f 102/159/47 60/70/47 72/29/47 118/157/47
f 61/77/48 95/76/48 78/79/48 55/78/48
f 44/165/66 102/159/66 118/157/66 31/156/66
f 20/144/67 124/143/67 119/164/67 43/166/67
f 8/123/68 97/136/68 113/149/68 19/124/68
f 43/166/69 119/164/69 98/162/69 45/167/69
f 45/167/70 98/162/70 99/163/70 46/168/70
f 46/169/71 99/161/71 100/160/71 47/170/71
f 47/170/72 100/160/72 101/158/72 48/171/72
f 48/171/73 101/158/73 102/159/73 44/165/73
f 32/151/74 103/150/74 108/142/74 7/141/74
f 71/28/10 117/155/10 118/157/10 72/29/10
f 70/31/11 116/154/11 117/155/11 71/28/11
f 69/33/12 115/153/12 116/154/12 70/31/12
f 68/35/13 114/152/13 115/153/13 69/33/13
f 67/36/14 103/150/14 114/152/14 68/35/14
f 65/38/15 112/148/15 113/149/15 66/39/15
f 64/41/16 111/147/16 112/148/16 65/38/16
f 63/43/17 110/146/17 111/147/17 64/41/17
f 62/45/18 109/145/18 110/146/18 63/43/18
f 122/46/19 124/143/19 109/145/19 62/45/19
f 53/48/20 107/140/20 108/142/20 54/49/20
f 52/51/21 106/139/21 107/140/21 53/48/21
f 51/53/22 105/138/22 106/139/22 52/51/22
f 50/55/23 104/137/23 105/138/23 51/53/23
f 49/56/24 97/136/24 104/137/24 50/55/24
f 119/164/48 124/143/48 122/46/48 61/77/48 55/78/48 120/75/48
f 128/86/49 129/80/49 130/84/49 131/85/49 132/105/49 133/104/49 134/103/49 135/101/49 136/99/49 137/83/49 138/100/49 139/102/49 140/108/49 141/107/49 142/106/49 143/98/49 144/97/49 145/82/49 146/95/49 147/96/49 148/111/49 149/110/49 150/109/49 151/91/49 152/90/49 153/81/49 154/88/49 155/89/49 156/94/49 125/93/49 126/92/49 127/87/49
