# Blender v2.90.1 OBJ File: 'LowerArm.blend'
# www.blender.org
mtllib LowerArm.mtl
o Cylinder
v -0.000500 -0.017500 -0.020000
v -0.000500 -0.021402 -0.019616
v -0.000500 -0.025154 -0.018478
v -0.000500 -0.028611 -0.016629
v -0.000500 -0.031642 -0.014142
v -0.000500 -0.034129 -0.011111
v -0.000500 -0.035978 -0.007654
v -0.000500 -0.037116 -0.003902
v -0.000500 -0.037500 -0.000000
v -0.000500 -0.037116 0.003902
v -0.000500 -0.035978 0.007654
v -0.000500 -0.034129 0.011111
v -0.000500 -0.031642 0.014142
v -0.000500 -0.028611 0.016629
v -0.000500 -0.025154 0.018478
v -0.000500 -0.021402 0.019616
v -0.000500 -0.017500 0.020000
v -0.025500 -0.017500 -0.017488
v -0.023000 -0.017500 -0.020000
v -0.025500 -0.020912 -0.017152
v -0.023000 -0.021402 -0.019616
v -0.025500 -0.024192 -0.016157
v -0.023000 -0.025154 -0.018478
v -0.025500 -0.027216 -0.014541
v -0.023000 -0.028611 -0.016629
v -0.025500 -0.029866 -0.012366
v -0.023000 -0.031642 -0.014142
v -0.025500 -0.032041 -0.009716
v -0.023000 -0.034129 -0.011111
v -0.025500 -0.033657 -0.006692
v -0.023000 -0.035978 -0.007654
v -0.025500 -0.034652 -0.003412
v -0.023000 -0.037116 -0.003902
v -0.025500 -0.034988 -0.000000
v -0.023000 -0.037500 -0.000000
v -0.025500 -0.034652 0.003412
v -0.023000 -0.037116 0.003902
v -0.025500 -0.033657 0.006692
v -0.023000 -0.035978 0.007654
v -0.025500 -0.032041 0.009716
v -0.023000 -0.034129 0.011111
v -0.025500 -0.029866 0.012366
v -0.023000 -0.031642 0.014142
v -0.025500 -0.027216 0.014541
v -0.023000 -0.028611 0.016629
v -0.025500 -0.024192 0.016157
v -0.023000 -0.025154 0.018478
v -0.025500 -0.020912 0.017152
v -0.023000 -0.021402 0.019616
v -0.025500 -0.017500 0.017488
v -0.023000 -0.017500 0.020000
v -0.008000 0.110000 0.020000
v -0.008000 0.110000 -0.020000
v -0.025500 0.132500 -0.017488
v -0.023000 0.132500 -0.020000
v -0.023000 0.132500 0.020000
v -0.025500 0.132500 0.017488
v -0.023000 0.136402 0.019616
v -0.025500 0.135912 0.017152
v -0.023000 0.140154 0.018478
v -0.025500 0.139192 0.016157
v -0.023000 0.143611 0.016629
v -0.025500 0.142216 0.014541
v -0.023000 0.146642 0.014142
v -0.025500 0.144866 0.012366
v -0.023000 0.149129 0.011111
v -0.025500 0.147041 0.009716
v -0.023000 0.150978 0.007654
v -0.025500 0.148657 0.006692
v -0.023000 0.152116 0.003902
v -0.025500 0.149652 0.003412
v -0.023000 0.152500 -0.000000
v -0.025500 0.149988 -0.000000
v -0.023000 0.152116 -0.003902
v -0.025500 0.149652 -0.003412
v -0.023000 0.150978 -0.007654
v -0.025500 0.148657 -0.006692
v -0.023000 0.149129 -0.011111
v -0.025500 0.147041 -0.009716
v -0.023000 0.146642 -0.014142
v -0.025500 0.144866 -0.012366
v -0.023000 0.143611 -0.016629
v -0.025500 0.142216 -0.014541
v -0.023000 0.140154 -0.018478
v -0.025500 0.139192 -0.016157
v -0.023000 0.136402 -0.019616
v -0.025500 0.135912 -0.017152
v -0.008000 0.132500 -0.020000
v -0.008000 0.136402 -0.019616
v -0.008000 0.132500 0.020000
v -0.008000 0.136402 0.019616
v -0.008000 0.140154 0.018478
v -0.008000 0.143611 0.016629
v -0.008000 0.146642 0.014142
v -0.008000 0.149129 0.011111
v -0.008000 0.150978 0.007654
v -0.008000 0.152116 0.003902
v -0.008000 0.152500 -0.000000
v -0.008000 0.152116 -0.003902
v -0.008000 0.150978 -0.007654
v -0.008000 0.149129 -0.011111
v -0.008000 0.146642 -0.014142
v -0.008000 0.143611 -0.016629
v -0.008000 0.140154 -0.018478
v -0.000500 0.110000 0.020000
v -0.000500 0.110000 -0.020000
vt 0.937500 0.550000
vt 0.937500 1.000000
vt 0.906250 1.000000
vt 0.906250 0.550000
vt 0.875000 1.000000
vt 0.875000 0.550000
vt 0.843750 1.000000
vt 0.843750 0.550000
vt 0.812500 1.000000
vt 0.812500 0.550000
vt 0.781250 1.000000
vt 0.781250 0.550000
vt 0.750000 1.000000
vt 0.750000 0.550000
vt 0.718750 1.000000
vt 0.718750 0.550000
vt 0.687500 1.000000
vt 0.687500 0.550000
vt 0.656250 1.000000
vt 0.656250 0.550000
vt 0.656250 0.550000
vt 0.625000 1.000000
vt 0.625000 0.550000
vt 0.593750 1.000000
vt 0.593750 0.550000
vt 0.562500 1.000000
vt 0.562500 0.550000
vt 0.531250 1.000000
vt 0.531250 0.550000
vt 0.500000 1.000000
vt 0.500000 0.550000
vt 1.000000 0.550000
vt 0.998037 0.500000
vt 0.998037 0.500000
vt 1.000000 0.550000
vt 0.968750 0.550000
vt 0.968750 1.000000
vt 1.000000 1.000000
vt 0.970713 0.500000
vt 0.939463 0.500000
vt 0.966788 0.500000
vt 0.908213 0.500000
vt 0.935537 0.500000
vt 0.876963 0.500000
vt 0.904287 0.500000
vt 0.845713 0.500000
vt 0.873037 0.500000
vt 0.814463 0.500000
vt 0.841787 0.500000
vt 0.783212 0.500000
vt 0.810537 0.500000
vt 0.751963 0.500000
vt 0.779287 0.500000
vt 0.720713 0.500000
vt 0.748037 0.500000
vt 0.689463 0.500000
vt 0.716787 0.500000
vt 0.658213 0.500000
vt 0.685537 0.500000
vt 0.626963 0.500000
vt 0.654287 0.500000
vt 0.595713 0.500000
vt 0.623037 0.500000
vt 0.564463 0.500000
vt 0.591787 0.500000
vt 0.533213 0.500000
vt 0.560537 0.500000
vt 0.501963 0.500000
vt 0.529287 0.500000
vt 0.500000 0.550000
vt 0.501963 0.500000
vt 0.000000 0.000000
vt 0.000000 0.775000
vt 0.031250 0.775000
vt 0.062500 0.775000
vt 0.093750 0.775000
vt 0.125000 0.775000
vt 0.156250 0.775000
vt 0.187500 0.775000
vt 0.218750 0.775000
vt 0.250000 0.775000
vt 0.281250 0.775000
vt 0.312500 0.775000
vt 0.343750 0.775000
vt 0.375000 0.775000
vt 0.406250 0.775000
vt 0.437500 0.775000
vt 0.468750 0.775000
vt 0.500000 0.775000
vt 0.000000 0.000000
vt 0.500000 1.000000
vt 0.500000 1.000000
vt 0.468750 0.550000
vt 0.470713 0.500000
vt 0.498037 0.500000
vt 0.437500 0.550000
vt 0.439463 0.500000
vt 0.466787 0.500000
vt 0.406250 0.550000
vt 0.408213 0.500000
vt 0.435537 0.500000
vt 0.375000 0.550000
vt 0.376963 0.500000
vt 0.404287 0.500000
vt 0.343750 0.550000
vt 0.345713 0.500000
vt 0.373037 0.500000
vt 0.312500 0.550000
vt 0.314463 0.500000
vt 0.341787 0.500000
vt 0.281250 0.550000
vt 0.283213 0.500000
vt 0.310537 0.500000
vt 0.250000 0.550000
vt 0.251963 0.500000
vt 0.279287 0.500000
vt 0.218750 0.550000
vt 0.220713 0.500000
vt 0.248037 0.500000
vt 0.187500 0.550000
vt 0.189463 0.500000
vt 0.216787 0.500000
vt 0.156250 0.550000
vt 0.158213 0.500000
vt 0.185537 0.500000
vt 0.125000 0.550000
vt 0.126963 0.500000
vt 0.154287 0.500000
vt 0.093750 0.550000
vt 0.095713 0.500000
vt 0.123037 0.500000
vt 0.062500 0.550000
vt 0.064463 0.500000
vt 0.091787 0.500000
vt 0.031250 0.550000
vt 0.033213 0.500000
vt 0.060537 0.500000
vt 0.000000 0.550000
vt 0.001963 0.500000
vt 0.029287 0.500000
vn -0.0000 -0.4714 -0.8819
vn -0.0000 -0.6344 -0.7730
vn 0.0000 -0.7730 -0.6344
vn 0.0000 -0.8819 -0.4714
vn 0.0000 -0.9569 -0.2903
vn 0.0000 -0.9952 -0.0980
vn 0.0000 -0.9952 0.0980
vn 0.0000 -0.9569 0.2903
vn 0.0000 -0.8819 0.4714
vn 0.0000 -0.7730 0.6344
vn -0.0000 -0.6344 0.7730
vn -0.0000 -0.4714 0.8819
vn -0.0000 -0.2903 0.9569
vn -0.0000 -0.0980 0.9952
vn -0.7088 0.0000 -0.7054
vn -0.0000 -0.2903 -0.9569
vn 0.0000 -0.0980 -0.9952
vn -0.7071 -0.0693 -0.7037
vn -0.7071 -0.2053 -0.6767
vn -0.7071 -0.3333 -0.6236
vn -0.7071 -0.4486 -0.5466
vn -0.7071 -0.5466 -0.4486
vn -0.7071 -0.6236 -0.3333
vn -0.7071 -0.6767 -0.2053
vn -0.7071 -0.7037 -0.0693
vn -0.7071 -0.7037 0.0693
vn -0.7071 -0.6767 0.2053
vn -0.7071 -0.6236 0.3333
vn -0.7071 -0.5466 0.4486
vn -0.7071 -0.4486 0.5466
vn -0.7071 -0.3333 0.6236
vn -0.7071 -0.2053 0.6767
vn -0.7071 -0.0693 0.7037
vn -0.7088 0.0000 0.7054
vn 1.0000 -0.0000 0.0000
vn 0.0000 1.0000 -0.0000
vn -0.7071 0.0693 0.7037
vn -0.7071 0.2053 0.6767
vn -0.7071 0.3333 0.6236
vn -0.7071 0.4486 0.5466
vn -0.7071 0.5466 0.4486
vn -0.7071 0.6236 0.3333
vn -0.7071 0.6767 0.2053
vn -0.7071 0.7037 0.0693
vn -0.7071 0.7037 -0.0693
vn -0.7071 0.6767 -0.2053
vn -0.7071 0.6236 -0.3333
vn -0.7071 0.5466 -0.4486
vn -0.7071 0.4486 -0.5466
vn -0.7071 0.3333 -0.6236
vn -0.7071 0.2053 -0.6767
vn -0.7071 0.0693 -0.7037
vn -1.0000 0.0000 0.0000
vn 0.0000 0.2903 -0.9569
vn 0.0000 0.4714 -0.8819
vn 0.0000 0.6344 -0.7730
vn 0.0000 0.7730 -0.6344
vn 0.0000 0.8819 -0.4714
vn 0.0000 0.9569 -0.2903
vn 0.0000 0.9952 -0.0980
vn 0.0000 0.9952 0.0980
vn 0.0000 0.9569 0.2903
vn 0.0000 0.8819 0.4714
vn 0.0000 0.7730 0.6344
vn 0.0000 0.6344 0.7730
vn 0.0000 0.4714 0.8819
vn 0.0000 0.2903 0.9569
vn 0.0000 0.0980 0.9952
vn 0.0000 0.0980 -0.9952
vn 0.0000 0.0000 -1.0000
vn 0.0000 0.0000 1.0000
usemtl Material.001
s off
f 23/1/1 3/2/1 4/3/1 25/4/1
f 25/4/2 4/3/2 5/5/2 27/6/2
f 27/6/3 5/5/3 6/7/3 29/8/3
f 29/8/4 6/7/4 7/9/4 31/10/4
f 31/10/5 7/9/5 8/11/5 33/12/5
f 33/12/6 8/11/6 9/13/6 35/14/6
f 35/14/7 9/13/7 10/15/7 37/16/7
f 37/16/8 10/15/8 11/17/8 39/18/8
f 39/18/9 11/17/9 12/19/9 41/20/9
f 41/21/10 12/19/10 13/22/10 43/23/10
f 43/23/11 13/22/11 14/24/11 45/25/11
f 45/25/12 14/24/12 15/26/12 47/27/12
f 47/27/13 15/26/13 16/28/13 49/29/13
f 49/29/14 16/28/14 17/30/14 51/31/14
f 19/32/15 18/33/15 54/34/15 55/35/15
f 21/36/16 2/37/16 3/2/16 23/1/16
f 19/32/17 1/38/17 2/37/17 21/36/17
f 19/32/18 21/36/18 20/39/18 18/33/18
f 21/36/19 23/1/19 22/40/19 20/41/19
f 23/1/20 25/4/20 24/42/20 22/43/20
f 25/4/21 27/6/21 26/44/21 24/45/21
f 27/6/22 29/8/22 28/46/22 26/47/22
f 29/8/23 31/10/23 30/48/23 28/49/23
f 31/10/24 33/12/24 32/50/24 30/51/24
f 33/12/25 35/14/25 34/52/25 32/53/25
f 35/14/26 37/16/26 36/54/26 34/55/26
f 37/16/27 39/18/27 38/56/27 36/57/27
f 39/18/28 41/20/28 40/58/28 38/59/28
f 41/21/29 43/23/29 42/60/29 40/61/29
f 43/23/30 45/25/30 44/62/30 42/63/30
f 45/25/31 47/27/31 46/64/31 44/65/31
f 47/27/32 49/29/32 48/66/32 46/67/32
f 49/29/33 51/31/33 50/68/33 48/69/33
f 50/68/34 51/31/34 56/70/34 57/71/34
f 53/72/35 88/73/35 89/74/35 104/75/35 103/76/35 102/77/35 101/78/35 100/79/35 99/80/35 98/81/35 97/82/35 96/83/35 95/84/35 94/85/35 93/86/35 92/87/35 91/88/35 90/89/35 52/90/35
f 52/90/36 105/91/36 106/92/36 53/72/36
f 56/70/37 58/93/37 59/94/37 57/95/37
f 58/93/38 60/96/38 61/97/38 59/98/38
f 60/96/39 62/99/39 63/100/39 61/101/39
f 62/99/40 64/102/40 65/103/40 63/104/40
f 64/102/41 66/105/41 67/106/41 65/107/41
f 66/105/42 68/108/42 69/109/42 67/110/42
f 68/108/43 70/111/43 71/112/43 69/113/43
f 70/111/44 72/114/44 73/115/44 71/116/44
f 72/114/45 74/117/45 75/118/45 73/119/45
f 74/117/46 76/120/46 77/121/46 75/122/46
f 76/120/47 78/123/47 79/124/47 77/125/47
f 78/123/48 80/126/48 81/127/48 79/128/48
f 80/126/49 82/129/49 83/130/49 81/131/49
f 82/129/50 84/132/50 85/133/50 83/134/50
f 84/132/51 86/135/51 87/136/51 85/137/51
f 86/135/52 55/138/52 54/139/52 87/140/52
f 20/41/53 22/40/53 24/42/53 26/44/53 28/46/53 30/48/53 32/50/53 34/52/53 36/54/53 38/56/53 40/58/53 42/60/53 44/62/53 46/64/53 48/66/53 50/68/53 57/71/53 59/94/53 61/97/53 63/100/53 65/103/53 67/106/53 69/109/53 71/112/53 73/115/53 75/118/53 77/121/53 79/124/53 81/127/53 83/130/53 85/133/53 87/136/53 54/139/53 18/33/53
f 84/132/54 104/75/54 89/74/54 86/135/54
f 82/129/55 103/76/55 104/75/55 84/132/55
f 80/126/56 102/77/56 103/76/56 82/129/56
f 78/123/57 101/78/57 102/77/57 80/126/57
f 76/120/58 100/79/58 101/78/58 78/123/58
f 74/117/59 99/80/59 100/79/59 76/120/59
f 72/114/60 98/81/60 99/80/60 74/117/60
f 70/111/61 97/82/61 98/81/61 72/114/61
f 68/108/62 96/83/62 97/82/62 70/111/62
f 66/105/63 95/84/63 96/83/63 68/108/63
f 64/102/64 94/85/64 95/84/64 66/105/64
f 62/99/65 93/86/65 94/85/65 64/102/65
f 60/96/66 92/87/66 93/86/66 62/99/66
f 58/93/67 91/88/67 92/87/67 60/96/67
f 56/70/68 90/89/68 91/88/68 58/93/68
f 86/135/69 89/74/69 88/73/69 55/138/69
f 2/37/35 1/38/35 106/92/35 105/91/35 17/30/35 16/28/35 15/26/35 14/24/35 13/22/35 12/19/35 11/17/35 10/15/35 9/13/35 8/11/35 7/9/35 6/7/35 5/5/35 4/3/35 3/2/35
f 1/38/70 19/32/70 106/92/70
f 88/73/70 53/72/70 55/138/70
f 55/138/70 53/72/70 19/32/70
f 106/92/70 19/32/70 53/72/70
f 51/31/71 17/30/71 105/91/71
f 105/91/71 52/90/71 51/31/71
f 51/31/71 52/90/71 56/70/71
f 56/70/71 52/90/71 90/89/71
o Cylinder.001
v -0.041700 0.132500 -0.013159
v -0.025500 0.132500 -0.017500
v -0.041700 0.132500 0.013159
v -0.025500 0.132500 0.017500
v -0.041700 0.135067 0.012906
v -0.025500 0.135914 0.017164
v -0.041700 0.137536 0.012157
v -0.025500 0.139197 0.016168
v -0.041700 0.139811 0.010941
v -0.025500 0.142222 0.014551
v -0.041700 0.141805 0.009305
v -0.025500 0.144874 0.012374
v -0.041700 0.143441 0.007311
v -0.025500 0.147051 0.009722
v -0.041700 0.144657 0.005036
v -0.025500 0.148668 0.006697
v -0.041700 0.145406 0.002567
v -0.025500 0.149664 0.003414
v -0.041700 0.145659 -0.000000
v -0.025500 0.150000 -0.000000
v -0.041700 0.145406 -0.002567
v -0.025500 0.149664 -0.003414
v -0.041700 0.144657 -0.005036
v -0.025500 0.148668 -0.006697
v -0.041700 0.143441 -0.007311
v -0.025500 0.147051 -0.009722
v -0.041700 0.141805 -0.009305
v -0.025500 0.144874 -0.012374
v -0.041700 0.139811 -0.010941
v -0.025500 0.142222 -0.014551
v -0.041700 0.137536 -0.012157
v -0.025500 0.139197 -0.016168
v -0.041700 0.135067 -0.012906
v -0.025500 0.135914 -0.017164
v -0.041700 0.092500 -0.013159
v -0.041700 0.089933 -0.012906
v -0.025500 0.089086 -0.017164
v -0.025500 0.092500 -0.017500
v -0.041700 0.087464 -0.012157
v -0.025500 0.085803 -0.016168
v -0.041700 0.085189 -0.010941
v -0.025500 0.082777 -0.014551
v -0.041700 0.083195 -0.009305
v -0.025500 0.080126 -0.012374
v -0.041700 0.081559 -0.007311
v -0.025500 0.077949 -0.009722
v -0.041700 0.080343 -0.005036
v -0.025500 0.076332 -0.006697
v -0.041700 0.079594 -0.002567
v -0.025500 0.075336 -0.003414
v -0.041700 0.079341 -0.000000
v -0.025500 0.075000 -0.000000
v -0.041700 0.079594 0.002567
v -0.025500 0.075336 0.003414
v -0.041700 0.080343 0.005036
v -0.025500 0.076332 0.006697
v -0.041700 0.081559 0.007311
v -0.025500 0.077949 0.009722
v -0.041700 0.083195 0.009305
v -0.025500 0.080126 0.012374
v -0.041700 0.085189 0.010941
v -0.025500 0.082777 0.014551
v -0.041700 0.087464 0.012157
v -0.025500 0.085803 0.016168
v -0.041700 0.089933 0.012906
v -0.025500 0.089086 0.017164
v -0.041700 0.092500 0.013159
v -0.025500 0.092500 0.017500
vt 0.500000 1.000000
vt 0.500000 0.500000
vt 0.500000 0.500000
vt 0.500000 1.000000
vt 0.468750 1.000000
vt 0.468750 0.500000
vt 0.437500 1.000000
vt 0.437500 0.500000
vt 0.406250 1.000000
vt 0.406250 0.500000
vt 0.375000 1.000000
vt 0.375000 0.500000
vt 0.343750 1.000000
vt 0.343750 0.500000
vt 0.312500 1.000000
vt 0.312500 0.500000
vt 0.281250 1.000000
vt 0.281250 0.500000
vt 0.250000 1.000000
vt 0.250000 0.500000
vt 0.218750 1.000000
vt 0.218750 0.500000
vt 0.187500 1.000000
vt 0.187500 0.500000
vt 0.156250 1.000000
vt 0.156250 0.500000
vt 0.125000 1.000000
vt 0.125000 0.500000
vt 0.093750 1.000000
vt 0.093750 0.500000
vt 0.062500 1.000000
vt 0.062500 0.500000
vt 0.031250 0.500000
vt 0.000000 0.500000
vt 1.000000 0.500000
vt 0.968750 0.500000
vt 0.937500 0.500000
vt 0.906250 0.500000
vt 0.875000 0.500000
vt 0.843750 0.500000
vt 0.812500 0.500000
vt 0.781250 0.500000
vt 0.750000 0.500000
vt 0.718750 0.500000
vt 0.687500 0.500000
vt 0.656250 0.500000
vt 0.625000 0.500000
vt 0.593750 0.500000
vt 0.562500 0.500000
vt 0.531250 0.500000
vt 0.031250 1.000000
vt 0.000000 1.000000
vt 0.531250 1.000000
vt 0.562500 1.000000
vt 0.593750 1.000000
vt 0.625000 1.000000
vt 0.656250 1.000000
vt 0.687500 1.000000
vt 0.718750 1.000000
vt 0.750000 1.000000
vt 0.781250 1.000000
vt 0.812500 1.000000
vt 0.843750 1.000000
vt 0.875000 1.000000
vt 0.906250 1.000000
vt 0.937500 1.000000
vt 0.968750 1.000000
vt 0.000000 1.000000
vt 1.000000 1.000000
vt 0.000000 0.500000
vn -0.2588 0.0000 0.9659
vn -0.2577 0.0947 0.9616
vn -0.2577 0.2805 0.9246
vn -0.2577 0.4555 0.8521
vn -0.2577 0.6130 0.7469
vn -0.2577 0.7469 0.6130
vn -0.2577 0.8521 0.4555
vn -0.2577 0.9246 0.2805
vn -0.2577 0.9616 0.0947
vn -0.2577 0.9616 -0.0947
vn -0.2577 0.9246 -0.2805
vn -0.2577 0.8521 -0.4555
vn -0.2577 0.7469 -0.6130
vn -0.2577 0.6130 -0.7469
vn -0.2577 0.4555 -0.8521
vn -1.0000 -0.0000 0.0000
vn -0.2577 0.2805 -0.9246
vn -0.2577 0.0947 -0.9616
vn 1.0000 0.0000 0.0000
vn -0.2577 -0.0947 -0.9616
vn -0.2577 -0.2805 -0.9246
vn -0.2577 -0.4555 -0.8521
vn -0.2577 -0.6130 -0.7469
vn -0.2577 -0.7469 -0.6130
vn -0.2577 -0.8521 -0.4555
vn -0.2577 -0.9246 -0.2805
vn -0.2577 -0.9616 -0.0947
vn -0.2577 -0.9616 0.0947
vn -0.2577 -0.9246 0.2805
vn -0.2577 -0.8521 0.4555
vn -0.2577 -0.7469 0.6130
vn -0.2577 -0.6130 0.7469
vn -0.2577 -0.4555 0.8521
vn -0.2577 -0.2805 0.9246
vn -0.2577 -0.0947 0.9616
vn -0.2588 0.0000 -0.9659
usemtl Material.002
s off
f 110/141/72 109/142/72 173/143/72 174/144/72
f 109/142/73 110/141/73 112/145/73 111/146/73
f 111/146/74 112/145/74 114/147/74 113/148/74
f 113/148/75 114/147/75 116/149/75 115/150/75
f 115/150/76 116/149/76 118/151/76 117/152/76
f 117/152/77 118/151/77 120/153/77 119/154/77
f 119/154/78 120/153/78 122/155/78 121/156/78
f 121/156/79 122/155/79 124/157/79 123/158/79
f 123/158/80 124/157/80 126/159/80 125/160/80
f 125/160/81 126/159/81 128/161/81 127/162/81
f 127/162/82 128/161/82 130/163/82 129/164/82
f 129/164/83 130/163/83 132/165/83 131/166/83
f 131/166/84 132/165/84 134/167/84 133/168/84
f 133/168/85 134/167/85 136/169/85 135/170/85
f 135/170/86 136/169/86 138/171/86 137/172/86
f 173/143/87 109/142/87 111/146/87 113/148/87 115/150/87 117/152/87 119/154/87 121/156/87 123/158/87 125/160/87 127/162/87 129/164/87 131/166/87 133/168/87 135/170/87 137/172/87 139/173/87 107/174/87 141/175/87 142/176/87 145/177/87 147/178/87 149/179/87 151/180/87 153/181/87 155/182/87 157/183/87 159/184/87 161/185/87 163/186/87 165/187/87 167/188/87 169/189/87 171/190/87
f 137/172/88 138/171/88 140/191/88 139/173/88
f 139/173/89 140/191/89 108/192/89 107/174/89
f 110/141/90 174/144/90 172/193/90 170/194/90 168/195/90 166/196/90 164/197/90 162/198/90 160/199/90 158/200/90 156/201/90 154/202/90 152/203/90 150/204/90 148/205/90 146/206/90 143/207/90 144/208/90 108/192/90 140/191/90 138/171/90 136/169/90 134/167/90 132/165/90 130/163/90 128/161/90 126/159/90 124/157/90 122/155/90 120/153/90 118/151/90 116/149/90 114/147/90 112/145/90
f 141/175/91 144/209/91 143/207/91 142/176/91
f 142/176/92 143/207/92 146/206/92 145/177/92
f 145/177/93 146/206/93 148/205/93 147/178/93
f 147/178/94 148/205/94 150/204/94 149/179/94
f 149/179/95 150/204/95 152/203/95 151/180/95
f 151/180/96 152/203/96 154/202/96 153/181/96
f 153/181/97 154/202/97 156/201/97 155/182/97
f 155/182/98 156/201/98 158/200/98 157/183/98
f 157/183/99 158/200/99 160/199/99 159/184/99
f 159/184/100 160/199/100 162/198/100 161/185/100
f 161/185/101 162/198/101 164/197/101 163/186/101
f 163/186/102 164/197/102 166/196/102 165/187/102
f 165/187/103 166/196/103 168/195/103 167/188/103
f 167/188/104 168/195/104 170/194/104 169/189/104
f 169/189/105 170/194/105 172/193/105 171/190/105
f 171/190/106 172/193/106 174/144/106 173/143/106
f 107/174/107 108/192/107 144/208/107 141/210/107
