# Blender v2.90.1 OBJ File: ''
# www.blender.org
mtllib Shoulder.mtl
o Cube
v 5.407797 19.021132 20.000000
v 17.500000 -20.000000 0.000000
v 0.000000 20.000000 20.000000
v 10.001250 -20.000000 27.500000
v 17.500000 -20.000000 20.000000
v -17.500000 -20.000000 0.000000
v -17.500000 -20.000000 20.000000
v -10.001250 -20.000000 27.500000
v 0.000000 20.000000 0.000000
v 17.500000 0.000000 0.000000
v 5.407797 19.021132 0.000000
v 10.286242 16.180340 0.000000
v 14.157798 11.755705 0.000000
v 16.643490 6.180340 0.000000
v 10.001250 3.252775 27.500000
v 0.000000 14.682775 27.500000
v 9.511754 6.784840 27.500000
v 8.091182 9.971161 27.500000
v 5.878588 12.499840 27.500000
v 3.090556 14.123352 27.500000
v -17.500000 0.000000 0.000000
v 0.000000 20.000000 0.000000
v -16.643490 6.180340 0.000000
v -14.157798 11.755705 0.000000
v -10.286242 16.180340 0.000000
v -5.407797 19.021132 0.000000
v 0.000000 14.682775 27.500000
v -10.001250 3.252775 27.500000
v -3.090556 14.123352 27.500000
v -5.878587 12.499840 27.500000
v -8.091181 9.971161 27.500000
v -9.511754 6.784840 27.500000
v 10.286242 16.180340 20.000000
v 14.157798 11.755705 20.000000
v 16.643490 6.180340 20.000000
v 17.500000 0.000000 20.000000
v 0.000000 20.000000 20.000000
v -5.407797 19.021132 20.000000
v -10.286242 16.180340 20.000000
v -14.157798 11.755705 20.000000
v -16.643490 6.180340 20.000000
v -17.500000 0.000000 20.000000
v -13.750626 -20.000000 23.750000
v 13.750626 1.626388 23.750000
v 8.082415 14.340091 23.750000
v 4.249177 16.572243 23.750000
v 13.077621 6.482590 23.750000
v 13.750626 -20.000000 23.750000
v 11.124490 10.863433 23.750000
v 0.000000 17.341387 23.750000
v -4.249177 16.572243 23.750000
v -8.082415 14.340091 23.750000
v -11.124489 10.863433 23.750000
v -13.077621 6.482590 23.750000
v -13.750626 1.626388 23.750000
v 0.000000 17.341387 23.750000
vt 0.375000 0.125000
vt 0.500000 0.125000
vt 0.500000 0.250000
vt 0.375000 0.250000
vt 0.538627 0.062500
vt 0.538627 0.125000
vt 0.500000 0.062500
vt 0.750000 0.625000
vt 0.750000 0.500000
vt 0.788627 0.500000
vt 0.788627 0.625000
vt 0.823473 0.500000
vt 0.823473 0.625000
vt 0.625000 0.125000
vt 0.625000 0.250000
vt 0.573473 0.250000
vt 0.573473 0.125000
vt 0.538627 0.250000
vt 0.538627 0.256118
vt 0.573473 0.273873
vt 0.601127 0.301527
vt 0.618882 0.336373
vt 0.625000 0.375000
vt 0.625000 0.375000
vt 0.680543 0.471209
vt 0.651394 0.482824
vt 0.573473 0.492042
vt 0.538627 0.497961
vt 0.500000 0.500000
vt 0.375000 0.500000
vt 0.573473 0.062500
vt 0.625000 0.062500
vt 0.788627 0.687500
vt 0.823473 0.687500
vt 0.750000 0.687500
vt 0.538627 0.625000
vt 0.500000 0.625000
vt 0.573473 0.625000
vt 0.651394 0.625000
vt 0.680543 0.625000
vt 0.750000 0.500000
vt 0.750000 0.625000
vt 0.375000 0.625000
vt 0.125000 0.500000
vt 0.125000 0.625000
vt 0.375000 0.062500
vt 0.538627 0.688520
vt 0.500000 0.687500
vt 0.573473 0.691479
vt 0.651394 0.696088
vt 0.680543 0.701895
vt 0.750000 0.687500
vt 0.375000 0.687500
vt 0.125000 0.687500
vt 0.375000 0.750000
vt 0.500000 0.750000
vt 0.538627 0.752039
vt 0.573473 0.757958
vt 0.651394 0.767176
vt 0.680543 0.778791
vt 0.625000 0.875000
vt 0.625000 0.875000
vt 0.618882 0.913627
vt 0.601127 0.948473
vt 0.573473 0.976127
vt 0.538627 0.993882
vt 0.500000 1.000000
vt 0.375000 1.000000
vt 0.125000 0.750000
vt 0.750000 0.750000
vt 0.750000 0.750000
vt 0.375000 0.000000
vt 0.500000 0.000000
vt 0.788627 0.750000
vt 0.823473 0.750000
vt 0.625000 0.000000
vt 0.573473 0.000000
vt 0.538627 0.000000
vn -1.0000 0.0000 0.0000
vn -0.7250 0.1005 0.6813
vn -0.1781 0.9840 0.0000
vn -0.5032 0.8642 0.0000
vn -0.7526 0.6585 0.0000
vn -0.9133 0.4072 0.0000
vn -0.9905 0.1373 0.0000
vn 0.0000 0.0000 -1.0000
vn -0.7008 0.3125 0.6412
vn -0.5976 0.5229 0.6078
vn -0.4084 0.7014 0.5842
vn -0.1461 0.8070 0.5722
vn 0.9905 0.1373 0.0000
vn 0.9133 0.4072 0.0000
vn 0.7526 0.6585 0.0000
vn 0.5032 0.8642 0.0000
vn 0.1781 0.9840 0.0000
vn 1.0000 0.0000 0.0000
vn 0.0000 0.0000 1.0000
vn 0.0000 -1.0000 0.0000
vn -0.7072 0.0000 0.7070
vn 0.7250 0.1005 0.6813
vn 0.7008 0.3125 0.6412
vn 0.5976 0.5229 0.6078
vn 0.4084 0.7014 0.5842
vn 0.1461 0.8070 0.5722
vn 0.7072 0.0000 0.7070
usemtl Material
s off
f 7/1/1 42/2/1 21/3/1 6/4/1
f 54/5/2 41/6/2 42/2/2 55/7/2
f 37/8/3 22/9/3 26/10/3 38/11/3
f 38/11/4 26/10/4 25/12/4 39/13/4
f 39/14/5 25/15/5 24/16/5 40/17/5
f 40/17/6 24/16/6 23/18/6 41/6/6
f 41/6/7 23/18/7 21/3/7 42/2/7
f 6/4/8 21/3/8 23/19/8 24/20/8 25/21/8 26/22/8 22/23/8 9/24/8 11/25/8 12/26/8 13/27/8 14/28/8 10/29/8 2/30/8
f 53/31/9 40/17/9 41/6/9 54/5/9
f 52/32/10 39/14/10 40/17/10 53/31/10
f 51/33/11 38/11/11 39/13/11 52/34/11
f 56/35/12 37/8/12 38/11/12 51/33/12
f 14/28/13 35/36/13 36/37/13 10/29/13
f 13/27/14 34/38/14 35/36/14 14/28/14
f 12/26/15 33/39/15 34/38/15 13/27/15
f 11/25/16 1/40/16 33/39/16 12/26/16
f 9/41/17 3/42/17 1/40/17 11/25/17
f 2/30/18 10/29/18 36/37/18 5/43/18
f 9/41/19 22/9/19 37/8/19 3/42/19
f 6/44/20 2/30/20 5/43/20 7/45/20
f 43/46/21 55/7/21 42/2/21 7/1/21
f 35/36/22 47/47/22 44/48/22 36/37/22
f 34/38/23 49/49/23 47/47/23 35/36/23
f 33/39/24 45/50/24 49/49/24 34/38/24
f 1/40/25 46/51/25 45/50/25 33/39/25
f 3/42/26 50/52/26 46/51/26 1/40/26
f 5/43/27 36/37/27 44/48/27 48/53/27
f 3/42/19 37/8/19 56/35/19 50/52/19
f 7/45/20 5/43/20 48/53/20 43/54/20
usemtl Material.001
f 4/55/19 15/56/19 17/57/19 18/58/19 19/59/19 20/60/19 16/61/19 27/62/19 29/63/19 30/64/19 31/65/19 32/66/19 28/67/19 8/68/19
f 43/54/20 48/53/20 4/55/20 8/69/20
f 50/52/19 56/35/19 27/70/19 16/71/19
f 48/53/27 44/48/27 15/56/27 4/55/27
f 50/52/26 16/71/26 20/60/26 46/51/26
f 46/51/25 20/60/25 19/59/25 45/50/25
f 45/50/24 19/59/24 18/58/24 49/49/24
f 49/49/23 18/58/23 17/57/23 47/47/23
f 47/47/22 17/57/22 15/56/22 44/48/22
f 8/72/21 28/73/21 55/7/21 43/46/21
f 27/70/12 56/35/12 51/33/12 29/74/12
f 29/74/11 51/33/11 52/34/11 30/75/11
f 30/76/10 52/32/10 53/31/10 31/77/10
f 31/77/9 53/31/9 54/5/9 32/78/9
f 32/78/2 54/5/2 55/7/2 28/73/2
