# Blender v2.90.1 OBJ File: 'Base.blend'
# www.blender.org
mtllib Shoulder.mtl
o Cylinder
v 0.000000 -0.002500 -0.056250
v 0.000000 0.000000 -0.056250
v 0.010974 -0.002500 -0.055169
v 0.010974 0.000000 -0.055169
v 0.021526 -0.002500 -0.051968
v 0.021526 0.000000 -0.051968
v 0.031251 -0.002500 -0.046770
v 0.031251 0.000000 -0.046770
v 0.039775 -0.002500 -0.039775
v 0.039775 0.000000 -0.039775
v 0.046770 -0.002500 -0.031251
v 0.046770 0.000000 -0.031251
v 0.051968 -0.002500 -0.021526
v 0.051968 0.000000 -0.021526
v 0.055169 -0.002500 -0.010974
v 0.055169 0.000000 -0.010974
v 0.056250 -0.002500 -0.000000
v 0.056250 0.000000 -0.000000
v 0.055169 -0.002500 0.010974
v 0.055169 0.000000 0.010974
v 0.051968 -0.002500 0.021526
v 0.051968 0.000000 0.021526
v 0.046770 -0.002500 0.031251
v 0.046770 0.000000 0.031251
v 0.039775 -0.002500 0.039775
v 0.039775 0.000000 0.039775
v 0.031251 -0.002500 0.046770
v 0.031251 0.000000 0.046770
v 0.021526 -0.002500 0.051968
v 0.021526 0.000000 0.051968
v 0.010974 -0.002500 0.055169
v 0.010974 0.000000 0.055169
v -0.000000 -0.002500 0.056250
v -0.000000 0.000000 0.056250
v -0.010974 -0.002500 0.055169
v -0.010974 0.000000 0.055169
v -0.021526 -0.002500 0.051968
v -0.021526 0.000000 0.051968
v -0.031251 -0.002500 0.046770
v -0.031251 0.000000 0.046770
v -0.039775 -0.002500 0.039775
v -0.039775 0.000000 0.039775
v -0.046770 -0.002500 0.031251
v -0.046770 0.000000 0.031251
v -0.051968 -0.002500 0.021526
v -0.051968 0.000000 0.021526
v -0.055169 -0.002500 0.010974
v -0.055169 0.000000 0.010974
v -0.056250 -0.002500 -0.000000
v -0.056250 0.000000 -0.000000
v -0.055169 -0.002500 -0.010974
v -0.055169 0.000000 -0.010974
v -0.051968 -0.002500 -0.021526
v -0.051968 0.000000 -0.021526
v -0.046770 -0.002500 -0.031251
v -0.046770 0.000000 -0.031251
v -0.039775 -0.002500 -0.039775
v -0.039775 0.000000 -0.039775
v -0.031251 -0.002500 -0.046770
v -0.031251 0.000000 -0.046770
v -0.021526 -0.002500 -0.051968
v -0.021526 0.000000 -0.051968
v -0.010974 -0.002500 -0.055169
v -0.010974 0.000000 -0.055169
vt 1.000000 0.500000
vt 1.000000 1.000000
vt 0.968750 1.000000
vt 0.968750 0.500000
vt 0.937500 1.000000
vt 0.937500 0.500000
vt 0.906250 1.000000
vt 0.906250 0.500000
vt 0.875000 1.000000
vt 0.875000 0.500000
vt 0.843750 1.000000
vt 0.843750 0.500000
vt 0.812500 1.000000
vt 0.812500 0.500000
vt 0.781250 1.000000
vt 0.781250 0.500000
vt 0.750000 1.000000
vt 0.750000 0.500000
vt 0.718750 1.000000
vt 0.718750 0.500000
vt 0.687500 1.000000
vt 0.687500 0.500000
vt 0.656250 1.000000
vt 0.656250 0.500000
vt 0.625000 1.000000
vt 0.625000 0.500000
vt 0.593750 1.000000
vt 0.593750 0.500000
vt 0.562500 1.000000
vt 0.562500 0.500000
vt 0.531250 1.000000
vt 0.531250 0.500000
vt 0.500000 1.000000
vt 0.500000 0.500000
vt 0.468750 1.000000
vt 0.468750 0.500000
vt 0.437500 1.000000
vt 0.437500 0.500000
vt 0.406250 1.000000
vt 0.406250 0.500000
vt 0.375000 1.000000
vt 0.375000 0.500000
vt 0.343750 1.000000
vt 0.343750 0.500000
vt 0.312500 1.000000
vt 0.312500 0.500000
vt 0.281250 1.000000
vt 0.281250 0.500000
vt 0.250000 1.000000
vt 0.250000 0.500000
vt 0.218750 1.000000
vt 0.218750 0.500000
vt 0.187500 1.000000
vt 0.187500 0.500000
vt 0.156250 1.000000
vt 0.156250 0.500000
vt 0.125000 1.000000
vt 0.125000 0.500000
vt 0.093750 1.000000
vt 0.093750 0.500000
vt 0.062500 1.000000
vt 0.062500 0.500000
vt 0.296822 0.485388
vt 0.250000 0.490000
vt 0.203179 0.485389
vt 0.158156 0.471731
vt 0.116663 0.449553
vt 0.080295 0.419706
vt 0.050447 0.383337
vt 0.028269 0.341844
vt 0.014612 0.296822
vt 0.010000 0.250000
vt 0.014611 0.203179
vt 0.028269 0.158156
vt 0.050447 0.116663
vt 0.080294 0.080294
vt 0.116663 0.050447
vt 0.158156 0.028269
vt 0.203178 0.014612
vt 0.250000 0.010000
vt 0.296822 0.014612
vt 0.341844 0.028269
vt 0.383337 0.050447
vt 0.419706 0.080294
vt 0.449553 0.116663
vt 0.471731 0.158156
vt 0.485388 0.203178
vt 0.490000 0.250000
vt 0.485388 0.296822
vt 0.471731 0.341844
vt 0.449553 0.383337
vt 0.419706 0.419706
vt 0.383337 0.449553
vt 0.341844 0.471731
vt 0.031250 1.000000
vt 0.031250 0.500000
vt 0.000000 1.000000
vt 0.000000 0.500000
vt 0.750000 0.490000
vt 0.796822 0.485388
vt 0.841844 0.471731
vt 0.883337 0.449553
vt 0.919706 0.419706
vt 0.949553 0.383337
vt 0.971731 0.341844
vt 0.985388 0.296822
vt 0.990000 0.250000
vt 0.985388 0.203178
vt 0.971731 0.158156
vt 0.949553 0.116663
vt 0.919706 0.080294
vt 0.883337 0.050447
vt 0.841844 0.028269
vt 0.796822 0.014612
vt 0.750000 0.010000
vt 0.703178 0.014612
vt 0.658156 0.028269
vt 0.616663 0.050447
vt 0.580294 0.080294
vt 0.550447 0.116663
vt 0.528269 0.158156
vt 0.514611 0.203179
vt 0.510000 0.250000
vt 0.514612 0.296822
vt 0.528269 0.341844
vt 0.550447 0.383337
vt 0.580295 0.419706
vt 0.616663 0.449553
vt 0.658156 0.471731
vt 0.703179 0.485389
vn 0.0980 0.0000 -0.9952
vn 0.2903 0.0000 -0.9569
vn 0.4714 0.0000 -0.8819
vn 0.6344 0.0000 -0.7730
vn 0.7730 0.0000 -0.6344
vn 0.8819 0.0000 -0.4714
vn 0.9569 0.0000 -0.2903
vn 0.9952 0.0000 -0.0980
vn 0.9952 0.0000 0.0980
vn 0.9569 0.0000 0.2903
vn 0.8819 0.0000 0.4714
vn 0.7730 0.0000 0.6344
vn 0.6344 0.0000 0.7730
vn 0.4714 0.0000 0.8819
vn 0.2903 0.0000 0.9569
vn 0.0980 0.0000 0.9952
vn -0.0980 0.0000 0.9952
vn -0.2903 0.0000 0.9569
vn -0.4714 0.0000 0.8819
vn -0.6344 0.0000 0.7730
vn -0.7730 0.0000 0.6344
vn -0.8819 0.0000 0.4714
vn -0.9569 0.0000 0.2903
vn -0.9952 0.0000 0.0980
vn -0.9952 0.0000 -0.0980
vn -0.9569 0.0000 -0.2903
vn -0.8819 0.0000 -0.4714
vn -0.7730 0.0000 -0.6344
vn -0.6344 0.0000 -0.7730
vn -0.4714 0.0000 -0.8819
vn 0.0000 1.0000 0.0000
vn -0.2903 0.0000 -0.9569
vn -0.0980 0.0000 -0.9952
vn 0.0000 -1.0000 0.0000
usemtl Material.001
s off
f 1/1/1 2/2/1 4/3/1 3/4/1
f 3/4/2 4/3/2 6/5/2 5/6/2
f 5/6/3 6/5/3 8/7/3 7/8/3
f 7/8/4 8/7/4 10/9/4 9/10/4
f 9/10/5 10/9/5 12/11/5 11/12/5
f 11/12/6 12/11/6 14/13/6 13/14/6
f 13/14/7 14/13/7 16/15/7 15/16/7
f 15/16/8 16/15/8 18/17/8 17/18/8
f 17/18/9 18/17/9 20/19/9 19/20/9
f 19/20/10 20/19/10 22/21/10 21/22/10
f 21/22/11 22/21/11 24/23/11 23/24/11
f 23/24/12 24/23/12 26/25/12 25/26/12
f 25/26/13 26/25/13 28/27/13 27/28/13
f 27/28/14 28/27/14 30/29/14 29/30/14
f 29/30/15 30/29/15 32/31/15 31/32/15
f 31/32/16 32/31/16 34/33/16 33/34/16
f 33/34/17 34/33/17 36/35/17 35/36/17
f 35/36/18 36/35/18 38/37/18 37/38/18
f 37/38/19 38/37/19 40/39/19 39/40/19
f 39/40/20 40/39/20 42/41/20 41/42/20
f 41/42/21 42/41/21 44/43/21 43/44/21
f 43/44/22 44/43/22 46/45/22 45/46/22
f 45/46/23 46/45/23 48/47/23 47/48/23
f 47/48/24 48/47/24 50/49/24 49/50/24
f 49/50/25 50/49/25 52/51/25 51/52/25
f 51/52/26 52/51/26 54/53/26 53/54/26
f 53/54/27 54/53/27 56/55/27 55/56/27
f 55/56/28 56/55/28 58/57/28 57/58/28
f 57/58/29 58/57/29 60/59/29 59/60/29
f 59/60/30 60/59/30 62/61/30 61/62/30
f 4/63/31 2/64/31 64/65/31 62/66/31 60/67/31 58/68/31 56/69/31 54/70/31 52/71/31 50/72/31 48/73/31 46/74/31 44/75/31 42/76/31 40/77/31 38/78/31 36/79/31 34/80/31 32/81/31 30/82/31 28/83/31 26/84/31 24/85/31 22/86/31 20/87/31 18/88/31 16/89/31 14/90/31 12/91/31 10/92/31 8/93/31 6/94/31
f 61/62/32 62/61/32 64/95/32 63/96/32
f 63/96/33 64/95/33 2/97/33 1/98/33
f 1/99/34 3/100/34 5/101/34 7/102/34 9/103/34 11/104/34 13/105/34 15/106/34 17/107/34 19/108/34 21/109/34 23/110/34 25/111/34 27/112/34 29/113/34 31/114/34 33/115/34 35/116/34 37/117/34 39/118/34 41/119/34 43/120/34 45/121/34 47/122/34 49/123/34 51/124/34 53/125/34 55/126/34 57/127/34 59/128/34 61/129/34 63/130/34
o Cube_Cube.001
v -0.046500 -0.000001 0.011865
v -0.046500 0.052985 0.011873
v -0.046500 -0.000001 -0.011865
v -0.046500 0.052985 -0.011873
v -0.025500 -0.000001 0.017500
v -0.025500 0.052999 0.017500
v -0.025500 -0.000001 -0.017500
v -0.025500 0.052999 -0.017500
v -0.046500 0.055291 0.011645
v -0.025500 0.056399 0.017164
v -0.046500 0.057519 0.010969
v -0.025500 0.059682 0.016168
v -0.046500 0.059571 0.009872
v -0.025500 0.062707 0.014551
v -0.046500 0.061371 0.008395
v -0.025500 0.065359 0.012374
v -0.046500 0.062847 0.006596
v -0.025500 0.067536 0.009722
v -0.046500 0.063944 0.004544
v -0.025500 0.069153 0.006697
v -0.046500 0.064620 0.002316
v -0.025500 0.070149 0.003414
v -0.046500 0.064848 -0.000000
v -0.025500 0.070485 -0.000000
v -0.046500 0.064620 -0.002316
v -0.025500 0.070149 -0.003414
v -0.046500 0.063944 -0.004544
v -0.025500 0.069153 -0.006697
v -0.046500 0.062847 -0.006596
v -0.025500 0.067536 -0.009722
v -0.046500 0.061371 -0.008395
v -0.025500 0.065359 -0.012374
v -0.046500 0.059571 -0.009872
v -0.025500 0.062707 -0.014551
v -0.046500 0.057519 -0.010969
v -0.025500 0.059682 -0.016168
v -0.046500 0.055291 -0.011645
v -0.025500 0.056399 -0.017164
vt 0.375000 0.250000
vt 0.625000 0.250000
vt 0.625000 0.500000
vt 0.375000 0.500000
vt 0.625000 0.750000
vt 0.375000 0.750000
vt 0.625000 1.000000
vt 0.375000 1.000000
vt 0.125000 0.500000
vt 0.125000 0.750000
vt 0.500000 0.500000
vt 0.468750 0.500000
vt 0.437500 0.500000
vt 0.406250 0.500000
vt 0.375000 0.500000
vt 0.343750 0.500000
vt 0.312500 0.500000
vt 0.281250 0.500000
vt 0.250000 0.500000
vt 0.218750 0.500000
vt 0.187500 0.500000
vt 0.156250 0.500000
vt 0.125000 0.500000
vt 0.093750 0.500000
vt 0.062500 0.500000
vt 0.031250 0.500000
vt 0.375000 0.000000
vt 0.000000 1.000000
vt 0.031250 1.000000
vt 0.062500 1.000000
vt 0.093750 1.000000
vt 0.125000 1.000000
vt 0.156250 1.000000
vt 0.187500 1.000000
vt 0.218750 1.000000
vt 0.250000 1.000000
vt 0.281250 1.000000
vt 0.312500 1.000000
vt 0.343750 1.000000
vt 0.375000 1.000000
vt 0.406250 1.000000
vt 0.437500 1.000000
vt 0.468750 1.000000
vt 0.500000 1.000000
vt 0.000000 0.500000
vn -0.2590 -0.0001 -0.9659
vn 1.0000 0.0000 0.0000
vn -0.2590 -0.0001 0.9659
vn 0.0000 -1.0000 0.0000
vn -1.0000 0.0000 0.0000
vn -0.2577 0.0951 0.9615
vn -0.2578 0.2805 0.9246
vn -0.2579 0.4555 0.8521
vn -0.2579 0.6129 0.7469
vn -0.2580 0.7468 0.6129
vn -0.2580 0.8521 0.4554
vn -0.2581 0.9245 0.2804
vn -0.2581 0.9615 0.0947
vn -0.2581 0.9615 -0.0947
vn -0.2581 0.9245 -0.2805
vn -0.2580 0.8521 -0.4554
vn -0.2580 0.7468 -0.6129
vn -0.2579 0.6129 -0.7469
vn -0.2579 0.4555 -0.8521
vn -0.2578 0.2805 -0.9246
vn -0.2577 0.0951 -0.9615
usemtl Material.001
s off
f 67/131/35 68/132/35 72/133/35 71/134/35
f 71/134/36 72/133/36 70/135/36 69/136/36
f 69/136/37 70/135/37 66/137/37 65/138/37
f 67/139/38 71/134/38 69/136/38 65/140/38
f 66/141/39 73/142/39 75/143/39 77/144/39 79/145/39 81/146/39 83/147/39 85/148/39 87/149/39 89/150/39 91/151/39 93/152/39 95/153/39 97/154/39 99/155/39 101/156/39 68/132/39 67/131/39 65/157/39
f 70/135/36 72/158/36 102/159/36 100/160/36 98/161/36 96/162/36 94/163/36 92/164/36 90/165/36 88/166/36 86/167/36 84/168/36 82/169/36 80/170/36 78/171/36 76/172/36 74/173/36
f 66/141/40 70/174/40 74/173/40 73/142/40
f 73/142/41 74/173/41 76/172/41 75/143/41
f 75/143/42 76/172/42 78/171/42 77/144/42
f 77/144/43 78/171/43 80/170/43 79/145/43
f 79/145/44 80/170/44 82/169/44 81/146/44
f 81/146/45 82/169/45 84/168/45 83/147/45
f 83/147/46 84/168/46 86/167/46 85/148/46
f 85/148/47 86/167/47 88/166/47 87/149/47
f 87/149/48 88/166/48 90/165/48 89/150/48
f 89/150/49 90/165/49 92/164/49 91/151/49
f 91/151/50 92/164/50 94/163/50 93/152/50
f 93/152/51 94/163/51 96/162/51 95/153/51
f 95/153/52 96/162/52 98/161/52 97/154/52
f 97/154/53 98/161/53 100/160/53 99/155/53
f 99/155/54 100/160/54 102/159/54 101/156/54
f 101/156/55 102/159/55 72/158/55 68/175/55
o Cube.001_Cube.002
v -0.000500 0.000000 0.020000
v -0.000500 0.000000 -0.020000
v -0.000500 0.053000 -0.020000
v -0.000500 0.053000 0.020000
v -0.000500 0.056902 0.019616
v -0.000500 0.060654 0.018478
v -0.000500 0.064111 0.016629
v -0.000500 0.067142 0.014142
v -0.000500 0.069629 0.011111
v -0.000500 0.071478 0.007654
v -0.000500 0.072616 0.003902
v -0.000500 0.073000 -0.000000
v -0.000500 0.072616 -0.003902
v -0.000500 0.071478 -0.007654
v -0.000500 0.069629 -0.011111
v -0.000500 0.067142 -0.014142
v -0.000500 0.064111 -0.016629
v -0.000500 0.060654 -0.018478
v -0.000500 0.056902 -0.019616
v -0.025500 -0.000001 0.017503
v -0.023000 0.000000 0.020000
v -0.025500 -0.000001 -0.017503
v -0.023000 0.000000 -0.020000
v -0.025500 0.052836 -0.017503
v -0.023000 0.053000 -0.020000
v -0.025500 0.052836 0.017503
v -0.023000 0.053000 0.020000
v -0.025500 0.056259 0.017177
v -0.023000 0.056902 0.019616
v -0.025500 0.059440 0.016244
v -0.023000 0.060654 0.018478
v -0.025500 0.062439 0.014694
v -0.023000 0.064111 0.016629
v -0.025500 0.065128 0.012560
v -0.023000 0.067142 0.014142
v -0.025500 0.067375 0.009911
v -0.023000 0.069629 0.011111
v -0.025500 0.069068 0.006849
v -0.023000 0.071478 0.007654
v -0.025500 0.070119 0.003498
v -0.023000 0.072616 0.003902
v -0.025500 0.070476 -0.000000
v -0.023000 0.073000 -0.000000
v -0.025500 0.070119 -0.003498
v -0.023000 0.072616 -0.003902
v -0.025500 0.069068 -0.006849
v -0.023000 0.071478 -0.007654
v -0.025500 0.067375 -0.009911
v -0.023000 0.069629 -0.011111
v -0.025500 0.065128 -0.012560
v -0.023000 0.067142 -0.014142
v -0.025500 0.062439 -0.014694
v -0.023000 0.064111 -0.016629
v -0.025500 0.059440 -0.016244
v -0.023000 0.060654 -0.018478
v -0.025500 0.056259 -0.017177
v -0.023000 0.056902 -0.019616
vt 0.031250 0.523750
vt 0.031250 1.000000
vt 0.000000 1.000000
vt 0.000000 0.523750
vt 0.375000 0.500000
vt 0.625000 0.500000
vt 0.625000 0.750000
vt 0.375000 0.750000
vt 0.375000 0.261875
vt 0.625000 0.261875
vt 0.625000 0.988125
vt 0.375000 0.988125
vt 0.136875 0.500000
vt 0.136875 0.750000
vt 0.500000 1.000000
vt 0.062500 1.000000
vt 0.093750 1.000000
vt 0.125000 1.000000
vt 0.156250 1.000000
vt 0.187500 1.000000
vt 0.218750 1.000000
vt 0.250000 1.000000
vt 0.281250 1.000000
vt 0.312500 1.000000
vt 0.343750 1.000000
vt 0.375000 1.000000
vt 0.406250 1.000000
vt 0.437500 1.000000
vt 0.468750 1.000000
vt 0.468750 0.523750
vt 0.437500 0.523750
vt 0.437500 0.523750
vt 0.406250 0.523750
vt 0.406250 0.523750
vt 0.375000 0.523750
vt 0.375000 0.523750
vt 0.343750 0.523750
vt 0.343750 0.523750
vt 0.312500 0.523750
vt 0.312500 0.523750
vt 0.281250 0.523750
vt 0.281250 0.523750
vt 0.250000 0.523750
vt 0.250000 0.523750
vt 0.218750 0.523750
vt 0.218750 0.523750
vt 0.187500 0.523750
vt 0.187500 0.523750
vt 0.156250 0.523750
vt 0.156250 0.523750
vt 0.125000 0.523750
vt 0.125000 0.523750
vt 0.093750 0.523750
vt 0.093750 0.523750
vt 0.062500 0.523750
vt 0.031250 0.523750
vt 0.500000 0.523750
vt 0.468750 0.523750
vt 0.375000 0.250000
vt 0.375000 0.000000
vt 0.379162 0.031108
vt 0.382690 0.243572
vt 0.454194 0.321506
vt 0.500000 0.500000
vt 0.475107 0.480212
vt 0.456442 0.488334
vt 0.431121 0.489819
vt 0.403999 0.490250
vt 0.375938 0.490342
vt 0.347295 0.490284
vt 0.318318 0.490140
vt 0.289200 0.489934
vt 0.260110 0.489665
vt 0.231220 0.489316
vt 0.202748 0.488842
vt 0.175053 0.488151
vt 0.148874 0.487001
vt 0.126272 0.484633
vt 0.116315 0.477495
vt 0.190356 0.437155
vt 0.031250 0.500000
vt 0.625000 0.250000
vn 0.0000 0.0980 -0.9952
vn 1.0000 0.0000 0.0000
vn 0.0000 0.0000 -1.0000
vn 0.0000 0.0000 1.0000
vn 0.0000 -1.0000 0.0000
vn 0.0000 0.2903 0.9569
vn 0.0000 0.4714 0.8819
vn 0.0000 0.6344 0.7730
vn 0.0000 0.7730 0.6344
vn 0.0000 0.8819 0.4714
vn 0.0000 0.9569 0.2903
vn 0.0000 0.9952 0.0980
vn 0.0000 0.9952 -0.0980
vn 0.0000 0.9569 -0.2903
vn 0.0000 0.8819 -0.4714
vn 0.0000 0.7730 -0.6344
vn 0.0000 0.6344 -0.7730
vn 0.0000 0.4714 -0.8819
vn 0.0000 0.2903 -0.9569
vn -0.0000 0.0980 0.9952
vn 0.0002 -1.0000 0.0000
vn -0.7067 -0.0000 -0.7075
vn -0.7067 -0.0000 0.7075
vn -0.7065 0.0683 0.7044
vn -0.7077 0.2022 0.6769
vn -0.7095 0.3282 0.6236
vn -0.7109 0.4420 0.5471
vn -0.7113 0.5398 0.4501
vn -0.7110 0.6180 0.3356
vn -0.7102 0.6728 0.2074
vn -0.7096 0.7011 0.0702
vn -0.7096 0.7011 -0.0702
vn -0.7102 0.6728 -0.2074
vn -0.7110 0.6180 -0.3356
vn -0.7113 0.5398 -0.4501
vn -0.7109 0.4420 -0.5471
vn -0.7095 0.3282 -0.6236
vn -0.7077 0.2022 -0.6769
vn -0.7065 0.0683 -0.7044
vn -1.0000 -0.0000 -0.0000
usemtl Material.002
s off
f 159/176/56 121/177/56 105/178/56 127/179/56
f 104/180/57 105/181/57 106/182/57 103/183/57
f 125/184/58 127/185/58 105/181/58 104/180/58
f 103/183/59 106/182/59 129/186/59 123/187/59
f 125/188/60 104/180/60 103/183/60 123/189/60
f 106/190/57 105/178/57 121/177/57 120/191/57 119/192/57 118/193/57 117/194/57 116/195/57 115/196/57 114/197/57 113/198/57 112/199/57 111/200/57 110/201/57 109/202/57 108/203/57 107/204/57
f 131/205/61 107/204/61 108/203/61 133/206/61
f 133/207/62 108/203/62 109/202/62 135/208/62
f 135/209/63 109/202/63 110/201/63 137/210/63
f 137/211/64 110/201/64 111/200/64 139/212/64
f 139/213/65 111/200/65 112/199/65 141/214/65
f 141/215/66 112/199/66 113/198/66 143/216/66
f 143/217/67 113/198/67 114/197/67 145/218/67
f 145/219/68 114/197/68 115/196/68 147/220/68
f 147/221/69 115/196/69 116/195/69 149/222/69
f 149/223/70 116/195/70 117/194/70 151/224/70
f 151/225/71 117/194/71 118/193/71 153/226/71
f 153/227/72 118/193/72 119/192/72 155/228/72
f 155/229/73 119/192/73 120/191/73 157/230/73
f 157/230/74 120/191/74 121/177/74 159/231/74
f 129/232/75 106/190/75 107/204/75 131/233/75
f 125/234/76 123/235/76 122/236/76 124/237/76
f 127/185/77 125/184/77 124/237/77 126/238/77
f 123/235/78 129/239/78 128/240/78 122/236/78
f 129/232/79 131/233/79 130/241/79 128/240/79
f 131/205/80 133/206/80 132/242/80 130/241/80
f 133/207/81 135/208/81 134/243/81 132/242/81
f 135/209/82 137/210/82 136/244/82 134/243/82
f 137/211/83 139/212/83 138/245/83 136/244/83
f 139/213/84 141/214/84 140/246/84 138/245/84
f 141/215/85 143/216/85 142/247/85 140/246/85
f 143/217/86 145/218/86 144/248/86 142/247/86
f 145/219/87 147/220/87 146/249/87 144/248/87
f 147/221/88 149/222/88 148/250/88 146/249/88
f 149/223/89 151/224/89 150/251/89 148/250/89
f 151/225/90 153/226/90 152/252/90 150/251/90
f 153/227/91 155/228/91 154/253/91 152/252/91
f 155/229/92 157/230/92 156/254/92 154/253/92
f 157/230/93 159/231/93 158/255/93 156/254/93
f 159/256/94 127/257/94 126/238/94 158/255/94
f 128/240/95 130/241/95 132/242/95 134/243/95 136/244/95 138/245/95 140/246/95 142/247/95 144/248/95 146/249/95 148/250/95 150/251/95 152/252/95 154/253/95 156/254/95 158/255/95 126/238/95 124/237/95 122/236/95
