# Blender v2.90.1 OBJ Logic.File: ''
# www.blender.org
mtllib UpperArm.mtl
o Cube
v 17.500000 75.000000 11.250000
v 17.500000 -75.000000 11.250000
v -17.500000 75.000000 11.250000
v -17.500000 -75.000000 11.250000
v 17.500000 75.000000 11.250000
v 0.000000 92.500000 11.250000
v 16.643490 80.407799 11.250000
v 14.157798 85.286247 11.250000
v 10.286242 89.157799 11.250000
v 5.407797 91.643494 11.250000
v 0.000000 92.500000 11.250000
v -17.500000 75.000000 11.250000
v -5.407797 91.643494 11.250000
v -10.286242 89.157799 11.250000
v -14.157798 85.286247 11.250000
v -16.643490 80.407799 11.250000
v -17.500000 -75.000000 11.250000
v 0.000000 -92.500000 11.250000
v -16.643490 -80.407799 11.250000
v -14.157798 -85.286247 11.250000
v -10.286242 -89.157799 11.250000
v -5.407797 -91.643494 11.250000
v 0.000000 -92.500000 11.250000
v 17.500000 -75.000000 11.250000
v 5.407797 -91.643494 11.250000
v 10.286242 -89.157799 11.250000
v 14.157798 -85.286247 11.250000
v 16.643490 -80.407799 11.250000
v -17.500000 -75.000000 -8.750000
v 17.500000 75.000000 -8.750000
v -17.500000 75.000000 -8.750000
v 17.500000 -75.000000 -8.750000
v 0.000000 92.500000 -8.750000
v 5.407797 91.643494 -8.750000
v 10.286242 89.157799 -8.750000
v 14.157798 85.286247 -8.750000
v 16.643490 80.407799 -8.750000
v 17.500000 75.000000 -8.750000
v 0.000000 92.500000 -8.750000
v -5.407797 91.643494 -8.750000
v -10.286242 89.157799 -8.750000
v -14.157798 85.286247 -8.750000
v -16.643490 80.407799 -8.750000
v -17.500000 75.000000 -8.750000
v 0.000000 -92.500000 -8.750000
v -5.407797 -91.643494 -8.750000
v -10.286242 -89.157799 -8.750000
v -14.157798 -85.286247 -8.750000
v -16.643490 -80.407799 -8.750000
v -17.500000 -75.000000 -8.750000
v 0.000000 -92.500000 -8.750000
v 5.407797 -91.643494 -8.750000
v 10.286242 -89.157799 -8.750000
v 14.157798 -85.286247 -8.750000
v 16.643490 -80.407799 -8.750000
v 17.500000 -75.000000 -8.750000
v 0.000000 90.000000 -11.249999
v -4.635255 89.265846 -11.249999
v -8.816778 87.135254 -11.249999
v -12.135255 83.816780 -11.249999
v -14.265848 79.635254 -11.250000
v -15.000000 75.000000 -11.250000
v 15.000000 75.000015 -11.250000
v 14.265843 79.635269 -11.250000
v 12.135244 83.816795 -11.249999
v 8.816764 87.135269 -11.249999
v 4.635234 89.265854 -11.249999
v -15.000000 -75.000000 -11.250000
v -14.265847 -79.635262 -11.250000
v -12.135255 -83.816780 -11.250000
v -8.816778 -87.135254 -11.250000
v -4.635252 -89.265846 -11.250000
v 0.000005 -90.000000 -11.250000
v 4.635262 -89.265846 -11.250000
v 8.816786 -87.135254 -11.250000
v 12.135262 -83.816772 -11.250000
v 14.265852 -79.635239 -11.250000
v 15.000000 -74.999985 -11.250000
v -15.000000 45.000000 -11.250000
v -14.265847 40.364742 -11.250000
v -12.135255 36.183220 -11.250000
v -8.816778 32.864742 -11.250000
v -4.635252 30.734152 -11.250000
v 0.000005 30.000000 -11.250000
v 4.635262 30.734152 -11.250000
v 8.816786 32.864746 -11.250000
v 12.135262 36.183231 -11.250000
v 14.265852 40.364761 -11.250000
v 15.000000 45.000019 -11.250000
v 0.000000 -30.000000 -11.249999
v -4.635255 -30.734152 -11.249999
v -8.816778 -32.864742 -11.249999
v -12.135255 -36.183220 -11.249999
v -14.265848 -40.364742 -11.250000
v -15.000000 -45.000000 -11.250000
v 15.000000 -44.999985 -11.250000
v 14.265843 -40.364735 -11.250000
v 12.135244 -36.183208 -11.249999
v 8.816764 -32.864735 -11.249999
v 4.635234 -30.734144 -11.249999
v -3.090171 84.388206 -16.250000
v -0.000000 85.000008 -16.250000
v -5.877852 82.612709 -16.250000
v -8.090170 79.847313 -16.250000
v -9.510566 76.362701 -16.250000
v -10.000000 72.500000 -16.250000
v 9.510562 76.362724 -16.250000
v 10.000000 72.500015 -16.250000
v 8.090163 79.847336 -16.250000
v 5.877843 82.612724 -16.250000
v 3.090155 84.388214 -16.250000
v -9.510566 43.637283 -16.250000
v -10.000000 47.500000 -16.250000
v -8.090170 40.152683 -16.250000
v -5.877852 37.387283 -16.250000
v -3.090168 35.611794 -16.250000
v 0.000003 35.000000 -16.250000
v 3.090174 35.611794 -16.250000
v 5.877857 37.387291 -16.250000
v 8.090175 40.152691 -16.250000
v 9.510568 43.637302 -16.250000
v 10.000000 47.500019 -16.250000
v -9.510566 -76.362717 -16.250000
v -10.000000 -72.500000 -16.250000
v -8.090170 -79.847313 -16.250000
v -5.877853 -82.612709 -16.250000
v -3.090168 -84.388206 -16.250000
v 0.000003 -85.000008 -16.250000
v 3.090174 -84.388206 -16.250000
v 5.877857 -82.612709 -16.250000
v 8.090175 -79.847305 -16.250000
v 9.510568 -76.362701 -16.250000
v 10.000000 -72.499992 -16.250000
v -3.090171 -35.611794 -16.250000
v -0.000000 -34.999996 -16.250000
v -5.877853 -37.387283 -16.250000
v -8.090170 -40.152683 -16.250000
v -9.510566 -43.637283 -16.250000
v -10.000000 -47.500000 -16.250000
v 9.510562 -43.637280 -16.250000
v 10.000000 -47.499985 -16.250000
v 8.090162 -40.152668 -16.250000
v 5.877842 -37.387276 -16.250000
v 3.090155 -35.611786 -16.250000
vt 0.375000 0.750000
vt 0.625000 0.750000
vt 0.625000 1.000000
vt 0.375000 1.000000
vt 0.375000 1.000000
vt 0.375000 0.993882
vt 0.375000 0.976127
vt 0.375000 0.948473
vt 0.375000 0.913627
vt 0.375000 0.875000
vt 0.375000 0.875000
vt 0.317418 0.778791
vt 0.340649 0.767176
vt 0.375000 0.757958
vt 0.375000 0.752039
vt 0.375000 0.750000
vt 0.375000 0.625000
vt 0.625000 0.625000
vt 0.625000 0.125000
vt 0.625000 0.000000
vt 0.625000 0.000000
vt 0.625000 0.125000
vt 0.750000 0.625000
vt 0.750000 0.625000
vt 0.750000 0.750000
vt 0.750000 0.750000
vt 0.682582 0.778791
vt 0.682582 0.625000
vt 0.659351 0.767176
vt 0.659351 0.625000
vt 0.625000 0.757958
vt 0.625000 0.625000
vt 0.625000 0.752039
vt 0.625000 0.625000
vt 0.625000 0.750000
vt 0.625000 0.625000
vt 0.625000 0.875000
vt 0.625000 0.875000
vt 0.625000 0.913627
vt 0.625000 0.948473
vt 0.625000 0.976127
vt 0.625000 0.993882
vt 0.625000 1.000000
vt 0.375000 0.625000
vt 0.250000 0.625000
vt 0.250000 0.750000
vt 0.211373 0.750000
vt 0.211373 0.625000
vt 0.176527 0.750000
vt 0.176527 0.625000
vt 0.125000 0.750000
vt 0.125000 0.625000
vt 0.375000 0.125000
vt 0.375000 0.000000
vt 0.375000 0.000000
vt 0.375000 0.125000
vt 0.375000 0.000000
vt 0.375000 0.125000
vt 0.250000 0.625000
vt 0.250000 0.750000
vt 0.375000 0.625000
vt 0.375000 0.625000
vt 0.340649 0.625000
vt 0.317418 0.625000
vt 0.000000 0.000000
vt 0.625000 0.125000
vt 0.000000 0.000000
vt 0.625000 0.125000
vt 0.000000 0.000000
vt 0.375000 0.000000
vt 0.375000 0.125000
vt 0.625000 0.000000
vt 0.625000 0.000000
vt 0.625000 0.000000
vt 0.625000 0.125000
vt 0.788627 0.750000
vt 0.788627 0.625000
vt 0.823473 0.625000
vt 0.823473 0.750000
vt 0.000000 0.000000
vt 0.000000 0.000000
vt 0.000000 0.000000
vt 0.000000 0.000000
vt 0.000000 0.000000
vt 0.000000 0.000000
vt 0.000000 0.000000
vt 0.000000 0.000000
vt 0.000000 0.000000
vt 0.000000 0.000000
vt 0.000000 0.000000
vt 0.000000 0.000000
vt 0.000000 0.000000
vt 0.000000 0.000000
vt 0.000000 0.000000
vt 0.000000 0.000000
vt 0.000000 0.000000
vt 0.000000 0.000000
vt 0.000000 0.000000
vt 0.000000 0.000000
vt 0.000000 0.000000
vt 0.000000 0.000000
vt 0.000000 0.000000
vt 0.000000 0.000000
vt 0.000000 0.000000
vt 0.000000 0.000000
vt 0.000000 0.000000
vt 0.000000 0.000000
vt 0.000000 0.000000
vt 0.000000 0.000000
vt 0.000000 0.000000
vt 0.000000 0.000000
vt 0.000000 0.000000
vt 0.000000 0.000000
vt 0.000000 0.000000
vt 0.000000 0.000000
vt 0.000000 0.000000
vt 0.000000 0.000000
vt 0.000000 0.000000
vt 0.000000 0.000000
vt 0.000000 0.000000
vt 0.000000 0.000000
vt 0.000000 0.000000
vt 0.000000 0.000000
vt 0.000000 0.000000
vt 0.000000 0.000000
vt 0.000000 0.000000
vt 0.000000 0.000000
vt 0.000000 0.000000
vt 0.000000 0.000000
vt 0.000000 0.000000
vt 0.000000 0.000000
vt 0.000000 0.000000
vt 0.000000 0.000000
vt 0.000000 0.000000
vt 0.000000 0.000000
vt 0.000000 0.000000
vt 0.000000 0.000000
vt 0.000000 0.000000
vt 0.000000 0.000000
vt 0.000000 0.000000
vt 0.000000 0.000000
vt 0.000000 0.000000
vt 0.000000 0.000000
vt 0.000000 0.000000
vt 0.000000 0.000000
vt 0.000000 0.000000
vt 0.000000 0.000000
vt 0.000000 0.000000
vt 0.000000 0.000000
vt 0.000000 0.000000
vt 0.000000 0.000000
vt 0.000000 0.000000
vt 0.000000 0.000000
vt 0.000000 0.000000
vt 0.000000 0.000000
vt 0.000000 0.000000
vt 0.000000 0.000000
vt 0.000000 0.000000
vt 0.000000 0.000000
vt 0.000000 0.000000
vt 0.000000 0.000000
vt 0.000000 0.000000
vt 0.000000 0.000000
vt 0.000000 0.000000
vn 0.0000 0.0000 1.0000
vn 1.0000 0.0000 0.0000
vn 0.1564 0.9877 0.0000
vn 0.4540 0.8910 0.0000
vn 0.7071 0.7071 0.0000
vn 0.8910 0.4540 0.0000
vn 0.9877 0.1564 0.0000
vn -0.1564 -0.9877 0.0000
vn -0.4540 -0.8910 0.0000
vn -0.7071 -0.7071 0.0000
vn -0.8910 -0.4540 0.0000
vn -0.9877 -0.1564 0.0000
vn 0.9877 -0.1564 0.0000
vn 0.8910 -0.4540 0.0000
vn 0.7071 -0.7071 0.0000
vn 0.4540 -0.8910 0.0000
vn 0.1564 -0.9877 0.0000
vn -0.7027 0.1113 -0.7027
vn -0.6339 0.3230 -0.7027
vn -0.9877 0.1564 0.0000
vn -0.8910 0.4540 0.0000
vn -0.7071 0.7071 0.0000
vn -0.4540 0.8910 0.0000
vn -0.1564 0.9877 0.0000
vn -0.5031 0.5031 -0.7027
vn -0.3230 0.6339 -0.7027
vn -0.1113 0.7027 -0.7027
vn 0.1113 0.7027 -0.7027
vn 0.3230 0.6339 -0.7027
vn 0.7027 0.1113 -0.7027
vn 0.5031 0.5031 -0.7027
vn 0.6339 0.3230 -0.7027
vn -1.0000 0.0000 0.0000
vn -0.7027 -0.1113 -0.7027
vn -0.6339 -0.3230 -0.7027
vn -0.5031 -0.5031 -0.7027
vn -0.3230 -0.6339 -0.7027
vn -0.1113 -0.7027 -0.7027
vn 0.1113 -0.7027 -0.7027
vn 0.3230 -0.6339 -0.7027
vn 0.7027 -0.1113 -0.7027
vn 0.6339 -0.3230 -0.7027
vn 0.5031 -0.5031 -0.7027
vn -0.7071 0.0000 -0.7071
vn 0.7071 0.0000 -0.7071
vn -0.0000 -0.0000 -1.0000
vn 0.6095 -0.2823 -0.7408
vn -0.6095 0.2823 -0.7408
vn -0.6095 -0.2823 -0.7408
vn 0.6834 -0.0984 -0.7234
vn -0.6834 0.0984 -0.7234
vn -0.5007 -0.4552 -0.7363
vn 0.6834 0.0984 -0.7234
vn -0.3390 -0.6048 -0.7206
vn 0.6095 0.2823 -0.7408
vn -0.1214 -0.6967 -0.7070
vn 0.5007 0.4552 -0.7363
vn 0.1214 -0.6967 -0.7070
vn -0.1214 0.6967 -0.7070
vn 0.3390 0.6048 -0.7206
vn 0.3390 -0.6048 -0.7206
vn -0.3390 0.6048 -0.7206
vn 0.1214 0.6967 -0.7070
vn 0.5007 -0.4552 -0.7363
vn -0.5007 0.4552 -0.7363
vn -0.6834 -0.0984 -0.7234
usemtl Material
s off
f 2/1/1 1/2/1 3/3/1 4/4/1
f 2/1/1 4/4/1 17/5/1 19/6/1 20/7/1 21/8/1 22/9/1 18/10/1 23/11/1 25/12/1 26/13/1 27/14/1 28/15/1 24/16/1
f 32/17/2 30/18/2 1/2/2 2/1/2
f 31/19/1 3/20/1 12/21/1 44/22/1
f 33/23/1 39/24/1 11/25/1 6/26/1
f 33/23/3 6/26/3 10/27/3 34/28/3
f 34/28/4 10/27/4 9/29/4 35/30/4
f 35/30/5 9/29/5 8/31/5 36/32/5
f 36/32/6 8/31/6 7/33/6 37/34/6
f 37/34/7 7/33/7 5/35/7 38/36/7
f 3/3/1 1/2/1 5/35/1 7/33/1 8/31/1 9/29/1 10/27/1 6/37/1 11/38/1 13/39/1 14/40/1 15/41/1 16/42/1 12/43/1
f 32/17/1 2/1/1 24/16/1 56/44/1
f 45/45/8 18/46/8 22/47/8 46/48/8
f 46/48/9 22/47/9 21/49/9 47/50/9
f 47/50/10 21/49/10 20/51/10 48/52/10
f 48/53/11 20/54/11 19/55/11 49/56/11
f 49/56/12 19/55/12 17/57/12 50/58/12
f 45/45/1 51/59/1 23/60/1 18/46/1
f 28/15/13 55/61/13 56/44/13 24/16/13
f 27/14/14 54/62/14 55/61/14 28/15/14
f 26/13/15 53/63/15 54/62/15 27/14/15
f 25/12/16 52/64/16 53/63/16 26/13/16
f 23/60/17 51/59/17 52/64/17 25/12/17
f 62/65/18 44/22/18 43/66/18 61/67/18
f 61/67/19 43/66/19 42/68/19 60/69/19
f 4/70/1 29/71/1 50/58/1 17/57/1
f 16/72/20 43/66/20 44/22/20 12/21/20
f 15/73/21 42/68/21 43/66/21 16/72/21
f 14/74/22 41/75/22 42/68/22 15/73/22
f 13/76/23 40/77/23 41/78/23 14/79/23
f 11/25/24 39/24/24 40/77/24 13/76/24
f 60/69/25 42/68/25 41/78/25 59/80/25
f 59/80/26 41/78/26 40/77/26 58/81/26
f 58/81/27 40/77/27 39/24/27 57/82/27
f 57/82/28 33/23/28 34/28/28 67/83/28
f 67/83/29 34/28/29 35/30/29 66/84/29
f 63/85/30 64/86/30 37/34/30 38/36/30
f 66/84/31 35/30/31 36/32/31 65/87/31
f 1/2/1 30/18/1 38/36/1 5/35/1
f 64/86/32 65/87/32 36/32/32 37/34/32
f 4/70/33 3/20/33 31/19/33 29/71/33
f 50/58/34 68/88/34 69/89/34 49/56/34
f 49/56/35 69/89/35 70/90/35 48/53/35
f 48/53/36 70/90/36 71/91/36 47/50/36
f 47/50/37 71/91/37 72/92/37 46/48/37
f 46/48/38 72/92/38 73/93/38 45/45/38
f 51/59/39 73/93/39 74/94/39 52/64/39
f 52/64/40 74/94/40 75/95/40 53/63/40
f 55/61/41 77/96/41 78/97/41 56/44/41
f 54/62/42 76/98/42 77/96/42 55/61/42
f 53/63/43 75/95/43 76/98/43 54/62/43
f 62/65/44 79/99/44 95/100/44 68/88/44 50/58/44 44/22/44
f 38/36/45 56/44/45 78/97/45 96/101/45 89/102/45 63/85/45
f 96/101/46 97/103/46 98/104/46 99/105/46 100/106/46 90/107/46 91/108/46 92/109/46 93/110/46 94/111/46 95/100/46 79/99/46 80/112/46 81/113/46 82/114/46 83/115/46 84/116/46 85/117/46 86/118/46 87/119/46 88/120/46 89/102/46
usemtl Material.001
f 96/101/45 78/97/45 133/121/45 141/122/45
f 88/120/47 87/119/47 120/123/47 121/124/47
f 103/125/46 101/126/46 102/127/46 111/128/46 110/129/46 109/130/46 107/131/46 108/132/46 122/133/46 121/124/46 120/123/46 119/134/46 118/135/46 117/136/46 116/137/46 115/138/46 114/139/46 112/140/46 113/141/46 106/142/46 105/143/46 104/144/46
f 61/67/48 60/69/48 104/144/48 105/143/48
f 81/113/49 80/112/49 112/140/49 114/139/49
f 89/102/50 88/120/50 121/124/50 122/133/50
f 62/65/51 61/67/51 105/143/51 106/142/51
f 82/114/52 81/113/52 114/139/52 115/138/52
f 63/85/45 89/102/45 122/133/45 108/132/45
f 64/86/53 63/85/53 108/132/53 107/131/53
f 83/115/54 82/114/54 115/138/54 116/137/54
f 79/99/44 62/65/44 106/142/44 113/141/44
f 65/87/55 64/86/55 107/131/55 109/130/55
f 84/116/56 83/115/56 116/137/56 117/136/56
f 66/84/57 65/87/57 109/130/57 110/129/57
f 85/117/58 84/116/58 117/136/58 118/135/58
f 58/81/59 57/82/59 102/127/59 101/126/59
f 67/83/60 66/84/60 110/129/60 111/128/60
f 86/118/61 85/117/61 118/135/61 119/134/61
f 59/80/62 58/81/62 101/126/62 103/125/62
f 57/82/63 67/83/63 111/128/63 102/127/63
f 87/119/64 86/118/64 119/134/64 120/123/64
f 60/69/65 59/80/65 103/125/65 104/144/65
f 80/112/66 79/99/66 113/141/66 112/140/66
f 123/145/46 124/146/46 139/147/46 138/148/46 137/149/46 136/150/46 134/151/46 135/152/46 144/153/46 143/154/46 142/155/46 140/156/46 141/122/46 133/121/46 132/157/46 131/158/46 130/159/46 129/160/46 128/161/46 127/162/46 126/163/46 125/164/46
f 77/96/47 76/98/47 131/158/47 132/157/47
f 95/100/51 94/111/51 138/148/51 139/147/51
f 70/90/49 69/89/49 123/145/49 125/164/49
f 78/97/50 77/96/50 132/157/50 133/121/50
f 97/103/53 96/101/53 141/122/53 140/156/53
f 71/91/52 70/90/52 125/164/52 126/163/52
f 98/104/55 97/103/55 140/156/55 142/155/55
f 72/92/54 71/91/54 126/163/54 127/162/54
f 99/105/57 98/104/57 142/155/57 143/154/57
f 73/93/56 72/92/56 127/162/56 128/161/56
f 91/108/59 90/107/59 135/152/59 134/151/59
f 100/106/60 99/105/60 143/154/60 144/153/60
f 74/94/58 73/93/58 128/161/58 129/160/58
f 92/109/62 91/108/62 134/151/62 136/150/62
f 90/107/63 100/106/63 144/153/63 135/152/63
f 75/95/61 74/94/61 129/160/61 130/159/61
f 93/110/65 92/109/65 136/150/65 137/149/65
f 68/88/44 95/100/44 139/147/44 124/146/44
f 76/98/64 75/95/64 130/159/64 131/158/64
f 94/111/48 93/110/48 137/149/48 138/148/48
f 69/89/66 68/88/66 124/146/66 123/145/66
